<svg xmlns="http://www.w3.org/2000/svg" xmlns:xlink="http://www.w3.org/1999/xlink" width="1110" zoomAndPan="magnify" viewBox="0 0 832.5 203.249992" height="271" preserveAspectRatio="xMidYMid meet" version="1.0"><defs><g/><clipPath id="07306070d2"><path d="M 14.640625 128.078125 L 134.667969 128.078125 L 134.667969 191.894531 L 14.640625 191.894531 Z M 14.640625 128.078125 " clip-rule="nonzero"/></clipPath><clipPath id="95c3cda200"><path d="M 73.910156 128.078125 C 40.351562 128.078125 13.148438 164.367188 13.148438 209.136719 C 13.148438 253.90625 40.351562 290.195312 73.910156 290.195312 C 107.464844 290.195312 134.667969 253.90625 134.667969 209.136719 C 134.667969 164.367188 107.464844 128.078125 73.910156 128.078125 Z M 73.910156 128.078125 " clip-rule="nonzero"/></clipPath><clipPath id="34e12e06d0"><path d="M 55.222656 6.578125 L 233.261719 6.578125 L 233.261719 184.660156 L 55.222656 184.660156 Z M 55.222656 6.578125 " clip-rule="nonzero"/></clipPath><clipPath id="1116ce2dd4"><path d="M 57.277344 3.726562 L 235.835938 8.652344 L 230.90625 187.101562 L 52.351562 182.175781 Z M 57.277344 3.726562 " clip-rule="nonzero"/></clipPath><clipPath id="61d0498ba4"><path d="M 147.785156 7.355469 L 158.117188 23.355469 C 158.785156 24.390625 160.164062 24.6875 161.199219 24.019531 L 177.179688 13.71875 C 177.601562 13.445312 178.132812 13.398438 178.597656 13.59375 C 179.0625 13.789062 179.402344 14.199219 179.503906 14.691406 L 183.378906 33.363281 C 183.628906 34.566406 184.808594 35.34375 186.015625 35.09375 L 204.617188 31.285156 C 205.113281 31.183594 205.625 31.332031 205.988281 31.683594 C 206.355469 32.03125 206.519531 32.535156 206.441406 33.035156 L 203.332031 51.851562 C 203.132812 53.066406 203.953125 54.21875 205.167969 54.425781 L 223.882812 57.613281 C 224.382812 57.699219 224.808594 58.023438 225.019531 58.480469 C 225.234375 58.941406 225.207031 59.472656 224.949219 59.910156 L 215.285156 76.328125 C 214.65625 77.390625 215.007812 78.757812 216.066406 79.390625 L 232.371094 89.152344 C 232.804688 89.414062 233.082031 89.871094 233.117188 90.375 C 233.148438 90.878906 232.933594 91.367188 232.535156 91.679688 L 217.621094 103.484375 C 216.652344 104.25 216.480469 105.652344 217.242188 106.625 L 228.933594 121.644531 C 229.246094 122.042969 229.339844 122.570312 229.1875 123.054688 C 229.035156 123.535156 228.65625 123.910156 228.171875 124.0625 L 210.023438 129.65625 C 208.84375 130.019531 208.179688 131.265625 208.535156 132.445312 L 214.035156 150.699219 C 214.179688 151.183594 214.078125 151.707031 213.761719 152.101562 C 213.445312 152.496094 212.957031 152.710938 212.453125 152.671875 L 193.519531 151.3125 C 192.289062 151.222656 191.21875 152.144531 191.125 153.371094 L 189.679688 172.390625 C 189.644531 172.894531 189.359375 173.34375 188.925781 173.597656 C 188.488281 173.851562 187.953125 173.875 187.5 173.65625 L 170.332031 165.519531 C 169.21875 164.992188 167.890625 165.464844 167.359375 166.578125 L 159.171875 183.785156 C 158.953125 184.242188 158.527344 184.558594 158.03125 184.640625 C 157.53125 184.71875 157.027344 184.546875 156.679688 184.179688 L 143.597656 170.363281 C 143.191406 169.933594 142.632812 169.683594 142.042969 169.667969 C 141.449219 169.652344 140.878906 169.871094 140.449219 170.277344 L 126.621094 183.351562 C 126.257812 183.695312 125.742188 183.839844 125.25 183.734375 C 124.757812 183.628906 124.351562 183.289062 124.160156 182.820312 L 116.933594 165.1875 C 116.464844 164.046875 115.164062 163.5 114.023438 163.964844 L 96.433594 171.144531 C 95.964844 171.335938 95.433594 171.285156 95.015625 171.007812 C 94.59375 170.730469 94.332031 170.261719 94.324219 169.761719 L 93.933594 150.691406 C 93.90625 149.460938 92.890625 148.480469 91.65625 148.5 L 72.675781 148.816406 C 72.171875 148.824219 71.695312 148.585938 71.402344 148.175781 C 71.105469 147.761719 71.035156 147.234375 71.207031 146.757812 L 77.703125 128.835938 C 78.125 127.679688 77.53125 126.398438 76.375 125.96875 L 58.558594 119.382812 C 58.085938 119.207031 57.726562 118.808594 57.601562 118.320312 C 57.476562 117.828125 57.601562 117.308594 57.933594 116.925781 L 70.4375 102.574219 C 71.25 101.644531 71.15625 100.234375 70.234375 99.417969 L 55.988281 86.808594 C 55.613281 86.476562 55.421875 85.976562 55.484375 85.472656 C 55.542969 84.972656 55.847656 84.53125 56.292969 84.296875 L 73.113281 75.445312 C 74.207031 74.871094 74.628906 73.523438 74.0625 72.429688 L 65.316406 55.503906 C 65.085938 55.054688 65.089844 54.519531 65.328125 54.074219 C 65.566406 53.628906 66.007812 53.328125 66.511719 53.273438 L 85.371094 51.117188 C 86.597656 50.980469 87.480469 49.878906 87.347656 48.652344 L 85.285156 29.691406 C 85.230469 29.191406 85.425781 28.695312 85.808594 28.367188 C 86.191406 28.035156 86.710938 27.917969 87.199219 28.046875 L 105.5625 32.875 C 106.753906 33.191406 107.972656 32.480469 108.289062 31.289062 L 113.191406 12.863281 C 113.320312 12.375 113.679688 11.984375 114.15625 11.816406 C 114.632812 11.648438 115.160156 11.722656 115.566406 12.019531 L 130.953125 23.183594 C 131.949219 23.910156 133.34375 23.6875 134.066406 22.691406 L 145.265625 7.289062 C 145.5625 6.878906 146.042969 6.644531 146.546875 6.660156 C 147.046875 6.671875 147.511719 6.933594 147.785156 7.355469 Z M 147.785156 7.355469 " clip-rule="nonzero"/></clipPath><clipPath id="0051fdd80e"><path d="M 88 36 L 197.890625 36 L 197.890625 145.746094 L 88 145.746094 Z M 88 36 " clip-rule="nonzero"/></clipPath><clipPath id="d3dfe2008a"><path d="M 89.742188 34.511719 L 199.242188 37.53125 L 196.21875 146.96875 L 86.71875 143.945312 Z M 89.742188 34.511719 " clip-rule="nonzero"/></clipPath><clipPath id="315ef34d33"><path d="M 144.492188 36.019531 C 114.253906 35.1875 89.0625 59.007812 88.230469 89.226562 C 87.394531 119.449219 111.230469 144.621094 141.46875 145.457031 C 171.707031 146.292969 196.894531 122.46875 197.730469 92.25 C 198.566406 62.03125 174.726562 36.855469 144.492188 36.019531 Z M 144.492188 36.019531 " clip-rule="nonzero"/></clipPath><clipPath id="053a17cf4c"><path d="M 94.160156 84.554688 L 122.691406 84.554688 L 122.691406 101.785156 L 94.160156 101.785156 Z M 94.160156 84.554688 " clip-rule="nonzero"/></clipPath><clipPath id="23e2f69076"><path d="M 94.675781 84.398438 L 122.777344 85.171875 L 122.3125 101.890625 L 94.214844 101.117188 Z M 94.675781 84.398438 " clip-rule="nonzero"/></clipPath><clipPath id="dd0e5ad22a"><path d="M 108.695312 84.78125 C 100.953125 84.570312 94.574219 88.140625 94.445312 92.757812 C 94.316406 97.375 100.492188 101.289062 108.234375 101.503906 C 115.972656 101.714844 122.355469 98.148438 122.480469 93.53125 C 122.609375 88.914062 116.4375 84.996094 108.695312 84.78125 Z M 108.695312 84.78125 " clip-rule="nonzero"/></clipPath><clipPath id="e8701e3e61"><path d="M 163.414062 86.632812 L 191.648438 86.632812 L 191.648438 101.785156 L 163.414062 101.785156 Z M 163.414062 86.632812 " clip-rule="nonzero"/></clipPath><clipPath id="496aacccc0"><path d="M 163.707031 86.300781 L 191.792969 87.074219 L 191.382812 101.890625 L 163.300781 101.117188 Z M 163.707031 86.300781 " clip-rule="nonzero"/></clipPath><clipPath id="335c9928a4"><path d="M 177.726562 86.6875 C 169.984375 86.472656 163.617188 89.617188 163.503906 93.707031 C 163.390625 97.800781 169.574219 101.289062 177.316406 101.503906 C 185.058594 101.714844 191.429688 98.574219 191.539062 94.480469 C 191.652344 90.390625 185.46875 86.902344 177.726562 86.6875 Z M 177.726562 86.6875 " clip-rule="nonzero"/></clipPath><clipPath id="43340e00a3"><path d="M 83.332031 128.078125 L 204.851562 128.078125 L 204.851562 191.894531 L 83.332031 191.894531 Z M 83.332031 128.078125 " clip-rule="nonzero"/></clipPath><clipPath id="be9453f940"><path d="M 144.09375 128.078125 C 110.535156 128.078125 83.332031 164.367188 83.332031 209.136719 C 83.332031 253.90625 110.535156 290.195312 144.09375 290.195312 C 177.648438 290.195312 204.851562 253.90625 204.851562 209.136719 C 204.851562 164.367188 177.648438 128.078125 144.09375 128.078125 Z M 144.09375 128.078125 " clip-rule="nonzero"/></clipPath><clipPath id="60a972851b"><path d="M 111.367188 128.222656 L 180.921875 128.222656 L 180.921875 191.894531 L 111.367188 191.894531 Z M 111.367188 128.222656 " clip-rule="nonzero"/></clipPath><clipPath id="bf46ef0ae0"><path d="M 118.234375 128.078125 L 146.46875 128.078125 L 146.46875 190.898438 L 118.234375 190.898438 Z M 118.234375 128.078125 " clip-rule="nonzero"/></clipPath><clipPath id="b20afe29b1"><path d="M 153.515625 128.078125 L 274.679688 128.078125 L 274.679688 191.894531 L 153.515625 191.894531 Z M 153.515625 128.078125 " clip-rule="nonzero"/></clipPath><clipPath id="a4ab9883b5"><path d="M 214.277344 128.078125 C 180.71875 128.078125 153.515625 161.828125 153.515625 203.46875 C 153.515625 245.105469 180.71875 278.859375 214.277344 278.859375 C 247.832031 278.859375 275.039062 245.105469 275.039062 203.46875 C 275.039062 161.828125 247.832031 128.078125 214.277344 128.078125 Z M 214.277344 128.078125 " clip-rule="nonzero"/></clipPath></defs><g fill="#004aad" fill-opacity="1"><g transform="translate(288.721204, 143.12923)"><g><path d="M 52.046875 -10.609375 C 50.953125 -12.328125 49.234375 -13.078125 47.125 -12.8125 C 45.75 -12.671875 44.3125 -12.1875 43.078125 -11.78125 C 37.125 -9.859375 30 -8.359375 22.53125 -11.984375 C 16.296875 -15.0625 13.015625 -21.15625 14.25 -27.53125 C 14.65625 -29.578125 15.265625 -32.25 16.640625 -34.375 C 22.9375 -44.453125 30 -47.25 39.515625 -43.421875 C 40.8125 -42.9375 41.984375 -42.59375 43.015625 -42.453125 C 44.375 -42.328125 45.546875 -42.734375 46.234375 -43.6875 C 46.84375 -44.578125 46.90625 -45.75 46.359375 -46.90625 C 45.75 -48.21875 44.71875 -49.515625 43.34375 -50.671875 C 39.71875 -53.6875 35.125 -55.203125 30.46875 -55.203125 C 26.4375 -55.203125 22.328125 -54.03125 18.703125 -51.703125 C 10.75 -46.640625 5.75 -40 3.625 -31.90625 C 0.890625 -21.234375 3.15625 -12.46875 10.265625 -5.828125 C 15.609375 -0.828125 22.734375 2.046875 31.359375 2.734375 C 37.25 2.390625 42.53125 1.171875 47.53125 -1.09375 C 49.03125 -1.78125 50.609375 -3.21875 52.046875 -5.0625 C 53.28125 -6.71875 53.28125 -8.765625 52.046875 -10.609375 Z M 52.046875 -10.609375 "/></g></g></g><g fill="#004aad" fill-opacity="1"><g transform="translate(342.484205, 143.12923)"><g><path d="M 35.203125 -13.703125 C 34.171875 -18.421875 33.421875 -23.28125 32.390625 -28.078125 C 32.046875 -29.578125 31.640625 -31.578125 30.546875 -32.46875 C 27.25 -35 23.625 -37.1875 19.03125 -36.4375 C 11.03125 -35 3.21875 -26.234375 2.53125 -17.671875 C 1.921875 -9.796875 8.21875 -4.3125 16.03125 -6.15625 C 18.078125 -6.71875 20 -7.875 21.921875 -8.828125 C 22.59375 -9.171875 23.140625 -9.71875 23.828125 -10.203125 C 24.171875 -9.71875 24.453125 -9.453125 24.65625 -9.109375 C 26.921875 -5.6875 29.859375 -4.390625 32.59375 -5.546875 C 35.265625 -6.71875 36.09375 -9.59375 35.203125 -13.703125 Z M 15.34375 -16.09375 C 14.59375 -15.8125 13.484375 -15.75 12.8125 -16.09375 C 12.390625 -16.296875 12.390625 -17.734375 12.671875 -18.421875 C 14.171875 -22.671875 16.578125 -26.09375 21.15625 -28.015625 C 21.984375 -22.734375 19.515625 -17.734375 15.34375 -16.09375 Z M 15.34375 -16.09375 "/></g></g></g><g fill="#004aad" fill-opacity="1"><g transform="translate(378.851225, 143.12923)"><g><path d="M 26.09375 -19.796875 C 23.484375 -22.1875 20 -23.703125 16.84375 -25.609375 C 15.953125 -26.15625 15 -26.5 13.828125 -27.125 C 16.296875 -30 18.703125 -30.40625 21.984375 -28.625 C 23.484375 -27.875 25.140625 -27.1875 26.296875 -28.5625 C 27.1875 -29.578125 27.734375 -31.359375 27.59375 -32.671875 C 27.1875 -36.09375 24.921875 -38.21875 21.703125 -39.234375 C 15.203125 -41.296875 6.984375 -37.875 3.828125 -31.84375 C 1.71875 -27.734375 2.046875 -23.359375 5.546875 -20.34375 C 7.8125 -18.421875 10.6875 -17.328125 13.359375 -16.03125 C 14.921875 -15.203125 16.640625 -14.796875 18.28125 -14.171875 C 18.21875 -13.90625 18.140625 -13.625 18.078125 -13.28125 C 15.890625 -13.484375 13.765625 -13.703125 11.640625 -13.96875 C 8.484375 -14.3125 6.03125 -13.28125 5.0625 -11.09375 C 4.046875 -8.765625 4.65625 -5.6875 7.1875 -4.109375 C 9.375 -2.734375 11.984375 -1.640625 14.453125 -1.4375 C 17.1875 -1.296875 20.0625 -1.984375 22.671875 -2.9375 C 30.6875 -5.953125 32.390625 -13.96875 26.09375 -19.796875 Z M 26.09375 -19.796875 "/></g></g></g><g fill="#004aad" fill-opacity="1"><g transform="translate(409.602218, 143.12923)"><g><path d="M 35.203125 -13.703125 C 34.171875 -18.421875 33.421875 -23.28125 32.390625 -28.078125 C 32.046875 -29.578125 31.640625 -31.578125 30.546875 -32.46875 C 27.25 -35 23.625 -37.1875 19.03125 -36.4375 C 11.03125 -35 3.21875 -26.234375 2.53125 -17.671875 C 1.921875 -9.796875 8.21875 -4.3125 16.03125 -6.15625 C 18.078125 -6.71875 20 -7.875 21.921875 -8.828125 C 22.59375 -9.171875 23.140625 -9.71875 23.828125 -10.203125 C 24.171875 -9.71875 24.453125 -9.453125 24.65625 -9.109375 C 26.921875 -5.6875 29.859375 -4.390625 32.59375 -5.546875 C 35.265625 -6.71875 36.09375 -9.59375 35.203125 -13.703125 Z M 15.34375 -16.09375 C 14.59375 -15.8125 13.484375 -15.75 12.8125 -16.09375 C 12.390625 -16.296875 12.390625 -17.734375 12.671875 -18.421875 C 14.171875 -22.671875 16.578125 -26.09375 21.15625 -28.015625 C 21.984375 -22.734375 19.515625 -17.734375 15.34375 -16.09375 Z M 15.34375 -16.09375 "/></g></g></g><g fill="#004aad" fill-opacity="1"><g transform="translate(445.969232, 143.12923)"><g/></g></g><g fill="#004aad" fill-opacity="1"><g transform="translate(463.844457, 143.12923)"><g><path d="M 34.65625 -49.921875 C 34.578125 -51.21875 34.453125 -52.796875 33.6875 -53.6875 C 32.796875 -54.71875 31.234375 -55.75 29.921875 -55.671875 C 28.828125 -55.609375 27.671875 -54.171875 26.921875 -53.078125 C 26.359375 -52.328125 26.5 -51.15625 26.4375 -50.125 C 26.03125 -44.71875 25.6875 -39.3125 25.265625 -33.6875 C 24.578125 -33.90625 24.03125 -34.03125 23.5625 -34.171875 C 13.765625 -37.59375 6.921875 -34.3125 3.703125 -24.453125 C 3.28125 -23.140625 2.9375 -21.84375 2.734375 -20.546875 C 1.375 -11.984375 5.890625 -4.71875 13.625 -3.015625 C 17.265625 -2.1875 20.75 -2.8125 24.109375 -4.25 C 24.921875 -4.59375 25.953125 -4.859375 26.703125 -4.59375 C 31.4375 -2.9375 34.65625 -4.9375 34.71875 -10 C 34.796875 -23.28125 34.71875 -36.640625 34.65625 -49.921875 Z M 23.703125 -16.03125 C 21.5 -15.34375 19.25 -14.71875 16.984375 -14.109375 C 15.140625 -14.171875 13.828125 -15.140625 13.96875 -16.78125 C 14.25 -18.96875 15.0625 -21.15625 15.890625 -23.28125 C 16.03125 -23.765625 17.046875 -24.109375 17.671875 -24.109375 C 20.75 -24.25 24.578125 -20.40625 24.375 -17.328125 C 24.375 -16.84375 24.03125 -16.15625 23.703125 -16.03125 Z M 23.703125 -16.03125 "/></g></g></g><g fill="#004aad" fill-opacity="1"><g transform="translate(499.389613, 143.12923)"><g><path d="M 24.109375 -32.125 C 22.53125 -32.328125 20.953125 -32.59375 19.375 -33.015625 C 16.578125 -33.828125 13.90625 -33.484375 11.4375 -31.984375 C 5.75 -28.5625 2.125 -23.625 1.171875 -16.984375 C 0.34375 -11.296875 2.875 -6.84375 8.28125 -5 C 11.03125 -4.046875 13.90625 -3.703125 16.703125 -3.078125 C 20.953125 -3.015625 24.453125 -4.390625 27.390625 -7.265625 C 30.953125 -10.6875 32.796875 -15 33.484375 -19.859375 C 34.3125 -26.03125 30.34375 -31.234375 24.109375 -32.125 Z M 22.125 -18.96875 C 20.8125 -15.203125 19.515625 -13.96875 16.84375 -14.109375 C 11.5 -14.375 10.6875 -15.890625 13.359375 -20.609375 C 13.5625 -20.953125 13.765625 -21.296875 13.96875 -21.640625 C 16.578125 -25.46875 17.125 -25.46875 20.890625 -22.875 C 22.390625 -21.78125 22.734375 -20.6875 22.125 -18.96875 Z M 22.125 -18.96875 "/></g></g></g><g fill="#004aad" fill-opacity="1"><g transform="translate(532.880141, 143.12923)"><g/></g></g><g fill="#004aad" fill-opacity="1"><g transform="translate(550.755378, 143.12923)"><g><path d="M 52.046875 -10.609375 C 50.953125 -12.328125 49.234375 -13.078125 47.125 -12.8125 C 45.75 -12.671875 44.3125 -12.1875 43.078125 -11.78125 C 37.125 -9.859375 30 -8.359375 22.53125 -11.984375 C 16.296875 -15.0625 13.015625 -21.15625 14.25 -27.53125 C 14.65625 -29.578125 15.265625 -32.25 16.640625 -34.375 C 22.9375 -44.453125 30 -47.25 39.515625 -43.421875 C 40.8125 -42.9375 41.984375 -42.59375 43.015625 -42.453125 C 44.375 -42.328125 45.546875 -42.734375 46.234375 -43.6875 C 46.84375 -44.578125 46.90625 -45.75 46.359375 -46.90625 C 45.75 -48.21875 44.71875 -49.515625 43.34375 -50.671875 C 39.71875 -53.6875 35.125 -55.203125 30.46875 -55.203125 C 26.4375 -55.203125 22.328125 -54.03125 18.703125 -51.703125 C 10.75 -46.640625 5.75 -40 3.625 -31.90625 C 0.890625 -21.234375 3.15625 -12.46875 10.265625 -5.828125 C 15.609375 -0.828125 22.734375 2.046875 31.359375 2.734375 C 37.25 2.390625 42.53125 1.171875 47.53125 -1.09375 C 49.03125 -1.78125 50.609375 -3.21875 52.046875 -5.0625 C 53.28125 -6.71875 53.28125 -8.765625 52.046875 -10.609375 Z M 52.046875 -10.609375 "/></g></g></g><g fill="#004aad" fill-opacity="1"><g transform="translate(604.518373, 143.12923)"><g><path d="M 35.203125 -13.703125 C 34.171875 -18.421875 33.421875 -23.28125 32.390625 -28.078125 C 32.046875 -29.578125 31.640625 -31.578125 30.546875 -32.46875 C 27.25 -35 23.625 -37.1875 19.03125 -36.4375 C 11.03125 -35 3.21875 -26.234375 2.53125 -17.671875 C 1.921875 -9.796875 8.21875 -4.3125 16.03125 -6.15625 C 18.078125 -6.71875 20 -7.875 21.921875 -8.828125 C 22.59375 -9.171875 23.140625 -9.71875 23.828125 -10.203125 C 24.171875 -9.71875 24.453125 -9.453125 24.65625 -9.109375 C 26.921875 -5.6875 29.859375 -4.390625 32.59375 -5.546875 C 35.265625 -6.71875 36.09375 -9.59375 35.203125 -13.703125 Z M 15.34375 -16.09375 C 14.59375 -15.8125 13.484375 -15.75 12.8125 -16.09375 C 12.390625 -16.296875 12.390625 -17.734375 12.671875 -18.421875 C 14.171875 -22.671875 16.578125 -26.09375 21.15625 -28.015625 C 21.984375 -22.734375 19.515625 -17.734375 15.34375 -16.09375 Z M 15.34375 -16.09375 "/></g></g></g><g fill="#004aad" fill-opacity="1"><g transform="translate(640.885398, 143.12923)"><g><path d="M 53.28125 -15.203125 C 52.734375 -20.0625 52.25 -25 49.375 -29.25 C 45.40625 -35.203125 38.828125 -35.953125 33.6875 -30.953125 C 33.015625 -30.34375 32.53125 -29.453125 31.90625 -28.625 C 25.546875 -35.953125 23.765625 -35.953125 14.109375 -29.109375 C 13.828125 -30.265625 13.828125 -31.578125 13.28125 -32.46875 C 12.53125 -33.625 11.375 -35 10.203125 -35.125 C 9.046875 -35.34375 7.46875 -34.375 6.4375 -33.484375 C 5.6875 -32.875 5.203125 -31.640625 5.0625 -30.609375 C 4.171875 -24.171875 3.28125 -17.671875 2.53125 -11.234375 C 2.390625 -10.203125 2.734375 -9.046875 3.078125 -8.015625 C 3.96875 -5.40625 6.09375 -3.765625 8.5625 -3.625 C 11.15625 -3.5 13.359375 -4.9375 14.515625 -7.671875 C 14.921875 -8.703125 15.140625 -9.796875 15.546875 -10.828125 C 16.78125 -14.3125 18.015625 -17.875 19.515625 -21.234375 C 20.203125 -22.8125 21.640625 -24.03125 22.734375 -25.46875 C 23.078125 -25.34375 23.421875 -25.203125 23.765625 -25.140625 C 23.90625 -22.46875 24.171875 -19.796875 24.171875 -17.125 C 24.171875 -14.515625 23.828125 -11.984375 23.90625 -9.453125 C 23.96875 -5.890625 26.296875 -3.421875 29.375 -3.359375 C 32.390625 -3.21875 34.796875 -5.40625 35.203125 -8.828125 C 35.40625 -10.140625 35.34375 -11.5 35.46875 -12.8125 C 35.6875 -16.234375 37.328125 -19.03125 39.3125 -21.703125 C 39.578125 -21.640625 39.796875 -21.578125 40 -21.578125 C 40.125 -20.0625 40.125 -18.484375 40.40625 -16.984375 C 41.09375 -13.765625 41.5625 -10.40625 42.796875 -7.390625 C 43.765625 -4.9375 46.15625 -3.703125 48.96875 -4.171875 C 51.296875 -4.59375 53.078125 -6.640625 53.34375 -9.59375 C 53.5625 -11.4375 53.484375 -13.359375 53.28125 -15.203125 Z M 53.28125 -15.203125 "/></g></g></g><g fill="#004aad" fill-opacity="1"><g transform="translate(695.196291, 143.12923)"><g><path d="M 12.671875 -29.25 C 12.59375 -31.15625 11.578125 -32.671875 9.515625 -32.9375 C 7.390625 -33.21875 5.828125 -31.984375 5.484375 -30.0625 C 4.3125 -23.421875 3.15625 -16.640625 2.53125 -9.9375 C 2.1875 -6.375 4.390625 -4.109375 6.84375 -3.90625 C 9.375 -3.703125 11.4375 -5.828125 12.125 -9.453125 C 12.328125 -10.828125 12.46875 -12.265625 12.53125 -13.625 C 12.59375 -15.6875 12.8125 -26.09375 12.671875 -29.25 Z M 7.609375 -38.828125 C 9.859375 -38.765625 11.921875 -40.8125 11.984375 -43.34375 C 11.984375 -45.671875 10.203125 -47.53125 7.875 -47.453125 C 5.546875 -47.453125 3.625 -45.609375 3.625 -43.21875 C 3.625 -40.8125 5.34375 -38.90625 7.609375 -38.828125 Z M 7.609375 -38.828125 "/></g></g></g><g fill="#004aad" fill-opacity="1"><g transform="translate(708.756793, 143.12923)"><g><path d="M 31.578125 -29.578125 C 27.734375 -34.71875 21.78125 -35.546875 16.578125 -31.84375 C 15.0625 -30.75 13.703125 -29.453125 12.125 -28.078125 C 11.84375 -28.625 11.703125 -28.96875 11.578125 -29.375 C 10.953125 -31.5 10 -33.484375 7.390625 -33.421875 C 4.65625 -33.28125 3.828125 -31.015625 3.625 -28.828125 C 3.15625 -22.53125 2.671875 -16.234375 2.53125 -9.9375 C 2.390625 -6.4375 4.71875 -4.046875 7.734375 -3.703125 C 10.75 -3.359375 13.359375 -5.265625 14.171875 -8.765625 C 15.265625 -13.625 17.9375 -17.671875 20.953125 -21.5 C 21.4375 -22.125 22.125 -22.53125 23.078125 -23.421875 C 23.421875 -21.640625 23.625 -20.484375 23.765625 -19.25 C 24.25 -16.03125 24.453125 -12.671875 25.265625 -9.453125 C 25.953125 -6.71875 28.28125 -5.34375 30.6875 -5.40625 C 32.875 -5.546875 35 -7.1875 35.40625 -9.9375 C 36.5 -16.921875 35.890625 -23.703125 31.578125 -29.578125 Z M 31.578125 -29.578125 "/></g></g></g><g fill="#004aad" fill-opacity="1"><g transform="translate(745.46626, 143.12923)"><g><path d="M 35.40625 -17.671875 C 34.796875 -21.03125 34.03125 -24.515625 32.59375 -27.671875 C 29.375 -35.0625 23.765625 -36.703125 16.703125 -32.875 C 16.578125 -32.796875 16.4375 -32.796875 15.890625 -32.671875 C 15.609375 -34.03125 15.34375 -35.203125 15.0625 -36.4375 C 14.046875 -41.5 13.078125 -46.640625 11.921875 -51.703125 C 11.296875 -54.375 9.515625 -55.8125 7.46875 -55.8125 C 5.34375 -55.75 3.5625 -54.109375 3.078125 -51.359375 C 2.734375 -49.71875 2.390625 -47.9375 2.53125 -46.296875 C 3.015625 -37.390625 3.5 -28.421875 4.25 -19.515625 C 4.515625 -15.953125 5.34375 -12.328125 6.234375 -8.828125 C 6.84375 -6.578125 8.625 -5.203125 11.09375 -5.140625 C 13.703125 -5.0625 15.484375 -6.5 16.15625 -8.828125 C 16.984375 -11.4375 17.53125 -14.109375 17.875 -16.78125 C 18.421875 -20.40625 20.140625 -23.28125 23.140625 -25.953125 C 23.703125 -24.515625 24.3125 -23.484375 24.453125 -22.46875 C 24.859375 -20 25 -17.46875 25.40625 -15.0625 C 25.6875 -13.21875 25.890625 -11.296875 26.578125 -9.59375 C 27.671875 -6.71875 30.75 -6.375 32.671875 -8.765625 C 34.71875 -11.375 35.953125 -14.375 35.40625 -17.671875 Z M 35.40625 -17.671875 "/></g></g></g><g fill="#004aad" fill-opacity="1"><g transform="translate(781.833262, 143.12923)"><g><path d="M 24.109375 -32.125 C 22.53125 -32.328125 20.953125 -32.59375 19.375 -33.015625 C 16.578125 -33.828125 13.90625 -33.484375 11.4375 -31.984375 C 5.75 -28.5625 2.125 -23.625 1.171875 -16.984375 C 0.34375 -11.296875 2.875 -6.84375 8.28125 -5 C 11.03125 -4.046875 13.90625 -3.703125 16.703125 -3.078125 C 20.953125 -3.015625 24.453125 -4.390625 27.390625 -7.265625 C 30.953125 -10.6875 32.796875 -15 33.484375 -19.859375 C 34.3125 -26.03125 30.34375 -31.234375 24.109375 -32.125 Z M 22.125 -18.96875 C 20.8125 -15.203125 19.515625 -13.96875 16.84375 -14.109375 C 11.5 -14.375 10.6875 -15.890625 13.359375 -20.609375 C 13.5625 -20.953125 13.765625 -21.296875 13.96875 -21.640625 C 16.578125 -25.46875 17.125 -25.46875 20.890625 -22.875 C 22.390625 -21.78125 22.734375 -20.6875 22.125 -18.96875 Z M 22.125 -18.96875 "/></g></g></g><g fill="#004aad" fill-opacity="1"><g transform="translate(293.20466, 189.369465)"><g><path d="M 11.28125 0.71875 C 13.90625 0.71875 16 -0.453125 17.515625 -2.609375 C 17.65625 -2.828125 17.75 -3.03125 17.75 -3.265625 C 17.75 -3.859375 17.3125 -4.5 16.484375 -4.5 C 16.171875 -4.5 15.71875 -4.375 15.375 -3.953125 C 14.28125 -2.546875 12.90625 -1.828125 11.140625 -1.828125 C 7.296875 -1.828125 5.234375 -4.890625 5.234375 -9.1875 C 5.234375 -14.171875 7.359375 -18.46875 11.9375 -18.46875 C 12.796875 -18.46875 13.453125 -18.234375 14.03125 -17.78125 C 14.203125 -17.65625 14.3125 -17.515625 14.484375 -17.375 C 14.796875 -17.140625 15.28125 -16.96875 15.59375 -16.96875 C 16.140625 -16.96875 16.796875 -17.34375 16.796875 -18.09375 C 16.796875 -18.4375 16.65625 -18.8125 16.34375 -19.125 C 15.109375 -20.46875 13.515625 -21.09375 11.703125 -21.0625 C 6.015625 -20.890625 2.890625 -16.171875 2.65625 -9.90625 C 2.75 -3.46875 5.296875 0.71875 11.28125 0.71875 Z M 11.28125 0.71875 "/></g></g></g><g fill="#004aad" fill-opacity="1"><g transform="translate(319.45147, 189.369465)"><g><path d="M 5.46875 0.28125 C 6.15625 0.234375 6.640625 -0.28125 6.671875 -1.03125 C 6.703125 -1.484375 6.703125 -1.921875 6.671875 -2.375 L 6.40625 -7.5 C 6.359375 -7.875 6.578125 -8.015625 6.921875 -8.015625 C 7.5 -8.015625 8.078125 -8.078125 8.703125 -8.046875 C 8.984375 -8.046875 9.15625 -7.984375 9.328125 -7.734375 C 10.359375 -6.4375 11.453125 -5.125 12.59375 -3.859375 C 13.453125 -2.921875 14.375 -2 15.3125 -1.09375 C 15.828125 -0.546875 16.546875 -0.578125 17.03125 -1.03125 C 17.4375 -1.40625 17.484375 -2.140625 17.0625 -2.65625 C 16.625 -3.171875 16.203125 -3.6875 15.71875 -4.15625 C 14.484375 -5.375 13.34375 -6.609375 12.25 -7.953125 C 12 -8.25 12.078125 -8.53125 12.421875 -8.671875 L 13.140625 -8.953125 C 15.140625 -9.703125 16.484375 -11.109375 17.0625 -13.140625 C 17.484375 -14.515625 17.3125 -15.9375 16.578125 -17.140625 C 15.140625 -19.515625 12.796875 -20.46875 10.15625 -20.75 C 8.21875 -20.921875 6.328125 -20.40625 4.46875 -19.859375 C 3.921875 -19.71875 3.640625 -19.34375 3.640625 -18.78125 C 3.640625 -18.203125 3.640625 -17.609375 3.609375 -17.0625 C 3.46875 -15.171875 3.515625 -13.28125 3.578125 -11.390625 C 3.6875 -8.84375 3.890625 -6.328125 3.984375 -3.78125 C 4.03125 -2.78125 3.921875 -1.796875 4.125 -0.828125 C 4.265625 -0.140625 4.84375 0.34375 5.46875 0.28125 Z M 6.984375 -10.421875 C 6.875 -10.421875 6.78125 -10.453125 6.640625 -10.453125 C 6.328125 -10.5 6.1875 -10.734375 6.1875 -11.046875 C 6.125 -13.078125 5.921875 -15.140625 6.015625 -17.234375 C 6.0625 -17.515625 6.15625 -17.6875 6.40625 -17.828125 C 6.921875 -18.03125 7.53125 -18.0625 8.125 -18.125 C 9.359375 -18.34375 10.671875 -18.40625 11.875 -17.890625 C 13.046875 -17.40625 14.203125 -16.890625 14.625 -15.546875 C 15.03125 -14.28125 14.6875 -13.171875 13.765625 -12.25 C 12.96875 -11.421875 11.96875 -10.96875 10.84375 -10.734375 C 9.5625 -10.5 8.296875 -10.328125 6.984375 -10.421875 Z M 6.984375 -10.421875 "/></g></g></g><g fill="#004aad" fill-opacity="1"><g transform="translate(345.870261, 189.369465)"><g><path d="M 8.328125 1.609375 C 10.015625 1.484375 11.53125 0.828125 13.078125 0.203125 C 13.796875 -0.109375 14.109375 -0.828125 13.859375 -1.4375 C 13.65625 -2.0625 12.96875 -2.265625 12.21875 -2.03125 C 11.21875 -1.71875 10.25 -1.34375 9.25 -1.0625 C 7.5625 -0.578125 7.15625 -1.0625 6.78125 -2.546875 C 6.265625 -4.671875 6.265625 -6.875 6.125 -8.90625 C 6.09375 -9.25 6.265625 -9.421875 6.609375 -9.46875 C 7.390625 -9.5625 8.1875 -9.765625 9.015625 -9.875 C 10.359375 -10.046875 11.703125 -10.015625 13 -10.15625 C 13.765625 -10.21875 14.203125 -10.671875 14.203125 -11.3125 C 14.171875 -11.96875 13.765625 -12.421875 13 -12.453125 C 11.734375 -12.53125 10.453125 -12.359375 9.1875 -12.25 C 8.359375 -12.1875 7.5625 -12.046875 6.75 -11.90625 C 6.40625 -11.875 6.1875 -12.046875 6.1875 -12.390625 L 6.1875 -18.34375 C 6.1875 -18.640625 6.359375 -18.8125 6.671875 -18.859375 C 7.5625 -18.953125 8.359375 -19.0625 9.21875 -19.125 C 10.53125 -19.234375 11.828125 -19.234375 13.140625 -19.34375 C 13.765625 -19.40625 14.171875 -19.953125 14.140625 -20.5 C 14.140625 -20.984375 13.734375 -21.5 13.140625 -21.578125 C 12.625 -21.671875 12.109375 -21.75 11.59375 -21.703125 C 9.875 -21.578125 8.15625 -21.359375 6.4375 -21.234375 C 6.15625 -21.1875 5.890625 -21.125 5.640625 -21.1875 C 4.984375 -21.4375 4.46875 -21.296875 3.921875 -20.921875 C 3 -20.328125 2.828125 -19.78125 3.46875 -19.0625 C 3.640625 -18.859375 3.75 -18.6875 3.75 -18.40625 C 3.78125 -16.71875 3.6875 -15.0625 3.640625 -14.03125 C 3.578125 -11.53125 3.609375 -9.046875 3.75 -6.53125 C 3.890625 -4.578125 4.0625 -2.65625 4.75 -0.796875 C 5.234375 0.515625 6.984375 1.6875 8.328125 1.609375 Z M 8.328125 1.609375 "/></g></g></g><g fill="#004aad" fill-opacity="1"><g transform="translate(368.74614, 189.369465)"><g><path d="M 11.28125 0.71875 C 13.90625 0.71875 16 -0.453125 17.515625 -2.609375 C 17.65625 -2.828125 17.75 -3.03125 17.75 -3.265625 C 17.75 -3.859375 17.3125 -4.5 16.484375 -4.5 C 16.171875 -4.5 15.71875 -4.375 15.375 -3.953125 C 14.28125 -2.546875 12.90625 -1.828125 11.140625 -1.828125 C 7.296875 -1.828125 5.234375 -4.890625 5.234375 -9.1875 C 5.234375 -14.171875 7.359375 -18.46875 11.9375 -18.46875 C 12.796875 -18.46875 13.453125 -18.234375 14.03125 -17.78125 C 14.203125 -17.65625 14.3125 -17.515625 14.484375 -17.375 C 14.796875 -17.140625 15.28125 -16.96875 15.59375 -16.96875 C 16.140625 -16.96875 16.796875 -17.34375 16.796875 -18.09375 C 16.796875 -18.4375 16.65625 -18.8125 16.34375 -19.125 C 15.109375 -20.46875 13.515625 -21.09375 11.703125 -21.0625 C 6.015625 -20.890625 2.890625 -16.171875 2.65625 -9.90625 C 2.75 -3.46875 5.296875 0.71875 11.28125 0.71875 Z M 11.28125 0.71875 "/></g></g></g><g fill="#004aad" fill-opacity="1"><g transform="translate(394.992951, 189.369465)"><g><path d="M 4.921875 0.71875 C 5.5 0.796875 6.09375 0.375 6.265625 -0.234375 C 6.328125 -0.484375 6.328125 -0.75 6.328125 -1.03125 L 6.234375 -5.71875 C 6.234375 -5.921875 6.234375 -6.125 6.265625 -6.359375 C 6.296875 -6.640625 6.5 -6.78125 6.78125 -6.8125 C 9.5 -7.265625 12.140625 -7.8125 14.859375 -8.15625 C 15.140625 -8.1875 15.375 -8.125 15.453125 -7.84375 C 15.453125 -7.8125 15.453125 -7.78125 15.453125 -7.734375 L 15.59375 -2.578125 C 15.59375 -2.09375 15.59375 -1.578125 15.859375 -1.140625 C 16.171875 -0.625 16.796875 -0.28125 17.265625 -0.375 C 17.859375 -0.515625 18.296875 -1.03125 18.34375 -1.6875 C 18.375 -2.140625 18.40625 -2.578125 18.34375 -3.03125 C 18.203125 -4.8125 18.171875 -8.359375 18.125 -10.15625 C 18.0625 -12.5625 18.03125 -15 18.125 -17.40625 C 18.203125 -18.234375 18.171875 -19.0625 18.09375 -19.890625 C 18.0625 -20.5 17.65625 -20.953125 17.09375 -21.0625 C 16.546875 -21.125 16.0625 -20.8125 15.828125 -20.203125 C 15.6875 -19.8125 15.625 -19.4375 15.625 -19.0625 C 15.546875 -16.890625 15.515625 -14.71875 15.40625 -12.5625 C 15.375 -12.109375 15.453125 -11.65625 15.453125 -11.21875 C 15.40625 -10.90625 15.234375 -10.765625 14.9375 -10.734375 C 12.1875 -10.421875 9.53125 -9.765625 6.8125 -9.390625 C 6.46875 -9.359375 6.234375 -9.53125 6.234375 -9.875 C 6.234375 -10.59375 6.296875 -11.3125 6.265625 -12 C 6.265625 -13.765625 6.328125 -15.515625 6.4375 -17.234375 C 6.4375 -18 6.5 -18.75 6.46875 -19.515625 C 6.4375 -20.125 5.984375 -20.546875 5.46875 -20.609375 C 4.890625 -20.71875 4.40625 -20.40625 4.15625 -19.78125 C 4.09375 -19.609375 4.03125 -19.40625 4.03125 -19.203125 C 3.8125 -17 3.640625 -14.796875 3.609375 -12.59375 C 3.546875 -10.359375 3.46875 -8.125 3.578125 -5.890625 C 3.609375 -4.09375 3.546875 -2.3125 3.71875 -0.546875 C 3.78125 0.171875 4.265625 0.6875 4.921875 0.71875 Z M 4.921875 0.71875 "/></g></g></g><g fill="#004aad" fill-opacity="1"><g transform="translate(423.062806, 189.369465)"><g><path d="M 8.328125 1.609375 C 10.015625 1.484375 11.53125 0.828125 13.078125 0.203125 C 13.796875 -0.109375 14.109375 -0.828125 13.859375 -1.4375 C 13.65625 -2.0625 12.96875 -2.265625 12.21875 -2.03125 C 11.21875 -1.71875 10.25 -1.34375 9.25 -1.0625 C 7.5625 -0.578125 7.15625 -1.0625 6.78125 -2.546875 C 6.265625 -4.671875 6.265625 -6.875 6.125 -8.90625 C 6.09375 -9.25 6.265625 -9.421875 6.609375 -9.46875 C 7.390625 -9.5625 8.1875 -9.765625 9.015625 -9.875 C 10.359375 -10.046875 11.703125 -10.015625 13 -10.15625 C 13.765625 -10.21875 14.203125 -10.671875 14.203125 -11.3125 C 14.171875 -11.96875 13.765625 -12.421875 13 -12.453125 C 11.734375 -12.53125 10.453125 -12.359375 9.1875 -12.25 C 8.359375 -12.1875 7.5625 -12.046875 6.75 -11.90625 C 6.40625 -11.875 6.1875 -12.046875 6.1875 -12.390625 L 6.1875 -18.34375 C 6.1875 -18.640625 6.359375 -18.8125 6.671875 -18.859375 C 7.5625 -18.953125 8.359375 -19.0625 9.21875 -19.125 C 10.53125 -19.234375 11.828125 -19.234375 13.140625 -19.34375 C 13.765625 -19.40625 14.171875 -19.953125 14.140625 -20.5 C 14.140625 -20.984375 13.734375 -21.5 13.140625 -21.578125 C 12.625 -21.671875 12.109375 -21.75 11.59375 -21.703125 C 9.875 -21.578125 8.15625 -21.359375 6.4375 -21.234375 C 6.15625 -21.1875 5.890625 -21.125 5.640625 -21.1875 C 4.984375 -21.4375 4.46875 -21.296875 3.921875 -20.921875 C 3 -20.328125 2.828125 -19.78125 3.46875 -19.0625 C 3.640625 -18.859375 3.75 -18.6875 3.75 -18.40625 C 3.78125 -16.71875 3.6875 -15.0625 3.640625 -14.03125 C 3.578125 -11.53125 3.609375 -9.046875 3.75 -6.53125 C 3.890625 -4.578125 4.0625 -2.65625 4.75 -0.796875 C 5.234375 0.515625 6.984375 1.6875 8.328125 1.609375 Z M 8.328125 1.609375 "/></g></g></g><g clip-path="url(#07306070d2)"><g clip-path="url(#95c3cda200)"><path fill="#00bf63" d="M 13.148438 128.078125 L 134.667969 128.078125 L 134.667969 290.324219 L 13.148438 290.324219 Z M 13.148438 128.078125 " fill-opacity="1" fill-rule="nonzero"/></g></g><g clip-path="url(#34e12e06d0)"><g clip-path="url(#1116ce2dd4)"><g clip-path="url(#61d0498ba4)"><path fill="#ff7e2c" d="M 56.597656 3.003906 L 236.558594 7.96875 L 231.589844 187.824219 L 51.628906 182.859375 Z M 56.597656 3.003906 " fill-opacity="1" fill-rule="nonzero"/></g></g></g><g clip-path="url(#0051fdd80e)"><g clip-path="url(#d3dfe2008a)"><g clip-path="url(#315ef34d33)"><path fill="#ffeb4b" d="M 89.742188 34.511719 L 199.242188 37.53125 L 196.21875 146.96875 L 86.71875 143.945312 Z M 89.742188 34.511719 " fill-opacity="1" fill-rule="nonzero"/></g></g></g><g clip-path="url(#053a17cf4c)"><g clip-path="url(#23e2f69076)"><g clip-path="url(#dd0e5ad22a)"><path fill="#ffb6a3" d="M 94.675781 84.398438 L 122.710938 85.167969 L 122.25 101.890625 L 94.214844 101.117188 Z M 94.675781 84.398438 " fill-opacity="1" fill-rule="nonzero"/></g></g></g><path stroke-linecap="round" transform="matrix(0.216725, 0.00597966, -0.00598323, 0.216595, 107.479806, 79.589042)" fill="none" stroke-linejoin="miter" d="M 12.397011 36.975397 C 34.364699 -0.36791 56.337149 -0.325263 78.295856 37.085816 " stroke="#472400" stroke-width="18" stroke-opacity="1" stroke-miterlimit="4"/><g clip-path="url(#e8701e3e61)"><g clip-path="url(#496aacccc0)"><g clip-path="url(#335c9928a4)"><path fill="#ffb6a3" d="M 163.707031 86.300781 L 191.734375 87.074219 L 191.324219 101.890625 L 163.300781 101.117188 Z M 163.707031 86.300781 " fill-opacity="1" fill-rule="nonzero"/></g></g></g><path stroke-linecap="round" transform="matrix(0.216725, 0.00597966, -0.00598323, 0.216595, 157.98262, 80.079477)" fill="none" stroke-linejoin="miter" d="M 12.401769 36.965322 C 34.369954 -0.359965 56.324395 -0.31682 78.301112 37.093762 " stroke="#472400" stroke-width="18" stroke-opacity="1" stroke-miterlimit="4"/><path stroke-linecap="round" transform="matrix(-0.216725, -0.00597966, 0.00598323, -0.216595, 152.447901, 98.734053)" fill="none" stroke-linejoin="miter" d="M 12.997898 25.122808 C 33.906058 3.589179 54.796896 3.625617 75.687927 25.213605 " stroke="#472400" stroke-width="18" stroke-opacity="1" stroke-miterlimit="4"/><g clip-path="url(#43340e00a3)"><g clip-path="url(#be9453f940)"><path fill="#7ed957" d="M 83.332031 128.078125 L 204.851562 128.078125 L 204.851562 290.324219 L 83.332031 290.324219 Z M 83.332031 128.078125 " fill-opacity="1" fill-rule="nonzero"/></g></g><g clip-path="url(#60a972851b)"><path fill="#004aad" d="M 180.183594 190.699219 C 179.585938 192.953125 178.960938 195.199219 178.410156 197.46875 C 178.382812 197.574219 178.339844 197.679688 178.378906 197.792969 C 156.042969 197.792969 133.703125 197.792969 111.367188 197.792969 C 113.5625 195.3125 115.769531 192.84375 118.324219 190.714844 C 118.355469 190.6875 118.390625 190.667969 118.425781 190.648438 C 118.554688 190.628906 118.683594 190.605469 118.8125 190.578125 L 119.511719 189.9375 C 120.238281 189.273438 120.96875 188.609375 121.695312 187.949219 C 122.148438 187.535156 122.609375 187.125 123.066406 186.714844 C 123.914062 185.949219 124.792969 185.160156 125.648438 184.371094 C 125.921875 184.117188 126.128906 183.808594 126.324219 183.511719 C 126.40625 183.386719 126.488281 183.265625 126.570312 183.148438 C 127.058594 182.476562 127.542969 181.804688 128.03125 181.128906 C 128.773438 180.097656 129.519531 179.070312 130.269531 178.042969 C 130.5625 177.640625 130.75 177.195312 130.902344 176.8125 C 130.917969 176.769531 130.929688 176.726562 130.945312 176.6875 C 130.976562 176.59375 131.003906 176.511719 131.050781 176.453125 L 131.078125 176.417969 L 131.089844 176.371094 C 131.09375 176.359375 131.101562 176.347656 131.105469 176.332031 C 131.03125 176.328125 130.957031 176.324219 130.886719 176.320312 C 131.042969 175.714844 131.46875 175.257812 131.765625 174.730469 C 132.183594 173.992188 132.480469 173.203125 132.796875 172.425781 C 133.121094 171.636719 132.75 170.996094 132.296875 170.378906 C 131.304688 169.015625 130.171875 167.789062 128.921875 166.664062 C 128.542969 166.328125 128.191406 165.953125 127.882812 165.554688 C 127.238281 164.738281 126.445312 164.09375 125.589844 163.523438 C 125.042969 163.160156 124.5 162.796875 124.277344 162.136719 C 124.261719 162.085938 124.253906 162.039062 124.242188 161.988281 C 124.308594 161.96875 124.375 161.945312 124.441406 161.921875 C 124.34375 161.59375 124.253906 161.277344 124.164062 160.960938 C 123.949219 160.203125 123.722656 159.421875 123.464844 158.660156 C 123.308594 158.203125 123.386719 157.765625 123.472656 157.300781 C 123.503906 157.136719 123.53125 156.972656 123.550781 156.808594 C 123.582031 156.542969 123.632812 156.273438 123.683594 156.015625 C 123.734375 155.742188 123.785156 155.464844 123.816406 155.1875 C 123.851562 154.898438 123.976562 154.675781 124.175781 154.378906 C 124.875 153.359375 125.757812 152.539062 126.875 151.871094 C 127.558594 151.464844 128.226562 151.007812 128.871094 150.5625 C 129.097656 150.410156 129.324219 150.253906 129.554688 150.101562 C 129.882812 149.878906 130.15625 149.601562 130.417969 149.335938 C 130.519531 149.230469 130.621094 149.128906 130.726562 149.03125 C 132.023438 147.796875 133.40625 146.472656 134.75 145.160156 C 134.964844 144.953125 135.167969 144.726562 135.363281 144.507812 C 135.644531 144.195312 135.933594 143.871094 136.261719 143.597656 C 136.449219 143.441406 136.558594 143.191406 136.617188 143.007812 C 136.898438 142.140625 137.324219 141.316406 137.738281 140.523438 C 137.957031 140.09375 138.1875 139.652344 138.394531 139.207031 C 138.820312 138.285156 139.285156 137.363281 139.734375 136.46875 L 139.972656 135.984375 C 140.070312 135.792969 140.144531 135.542969 139.847656 135.289062 C 139.730469 135.191406 139.621094 135.082031 139.515625 134.972656 C 139.382812 134.839844 139.242188 134.699219 139.085938 134.578125 C 138.367188 134 138.027344 133.1875 137.664062 132.328125 C 137.613281 132.210938 137.625 132.125 137.703125 132.007812 C 138.257812 131.164062 138.785156 130.515625 139.351562 129.957031 C 139.363281 129.945312 139.375 129.929688 139.386719 129.917969 C 139.773438 129.890625 139.964844 129.621094 140.117188 129.40625 C 140.171875 129.332031 140.21875 129.257812 140.277344 129.199219 C 140.429688 129.039062 140.609375 128.851562 140.726562 128.632812 C 140.84375 128.421875 141 128.328125 141.238281 128.328125 C 141.3125 128.328125 141.394531 128.339844 141.484375 128.355469 C 141.683594 128.394531 141.875 128.398438 142.058594 128.398438 C 142.140625 128.398438 142.21875 128.402344 142.300781 128.40625 C 142.582031 128.417969 142.867188 128.429688 143.152344 128.4375 C 143.671875 128.457031 144.207031 128.476562 144.738281 128.523438 C 144.648438 128.941406 144.566406 129.355469 144.480469 129.769531 C 144.246094 130.921875 144.003906 132.113281 143.707031 133.261719 C 143.457031 134.238281 143.59375 134.96875 144.15625 135.714844 C 144.640625 136.351562 145.082031 137.042969 145.503906 137.714844 C 145.714844 138.042969 145.921875 138.371094 146.136719 138.695312 C 146.230469 138.839844 146.265625 138.949219 146.253906 139.070312 L 146.15625 140.070312 C 146.101562 140.632812 146.050781 141.199219 145.988281 141.765625 C 145.921875 142.429688 145.847656 143.097656 145.773438 143.761719 L 145.707031 144.332031 C 145.667969 144.679688 145.601562 144.984375 145.507812 145.257812 C 145.074219 146.539062 144.636719 147.820312 144.203125 149.097656 L 143.550781 151.027344 C 143.503906 151.160156 143.425781 151.378906 143.625 151.597656 C 144.273438 152.304688 144.921875 153.015625 145.566406 153.726562 L 146.265625 154.496094 L 146.28125 154.507812 C 146.347656 154.480469 146.398438 154.4375 146.40625 154.339844 C 149.023438 156.207031 152.007812 157.414062 154.789062 158.988281 C 155.273438 159.265625 155.773438 159.507812 156.265625 159.777344 C 156.675781 160 157.097656 160.199219 157.558594 160.300781 C 159.023438 160.613281 160.285156 161.386719 161.601562 162.039062 C 163.984375 163.21875 166.011719 164.882812 168.019531 166.59375 C 169.53125 167.890625 171.011719 169.226562 172.53125 170.511719 C 173.90625 171.671875 175.242188 172.882812 176.429688 174.230469 C 177.136719 175.027344 177.734375 175.914062 178.226562 176.867188 C 178.671875 177.734375 179.1875 178.558594 179.585938 179.453125 C 180.136719 180.6875 180.492188 181.957031 180.660156 183.300781 C 180.757812 184.101562 180.832031 184.90625 180.882812 185.710938 C 180.992188 187.421875 180.621094 189.066406 180.183594 190.699219 Z M 180.183594 190.699219 " fill-opacity="1" fill-rule="nonzero"/></g><g clip-path="url(#bf46ef0ae0)"><path fill="#004aad" d="M 146.40625 154.339844 C 146.394531 154.5 146.265625 154.519531 146.152344 154.558594 C 144.953125 154.96875 143.757812 155.378906 142.558594 155.796875 C 141.457031 156.179688 140.359375 156.570312 139.257812 156.957031 C 139.136719 157 139.007812 157.023438 138.878906 157.054688 C 138.746094 156.925781 138.667969 156.742188 138.460938 156.675781 C 138.132812 156.570312 137.8125 156.441406 137.496094 156.308594 C 137.363281 156.253906 137.285156 156.269531 137.1875 156.390625 C 136.921875 156.730469 136.636719 157.0625 136.363281 157.402344 C 136.257812 157.535156 136.085938 157.628906 136.0625 157.851562 C 136.230469 157.851562 136.371094 157.851562 136.511719 157.851562 C 135.910156 158.082031 135.289062 158.273438 134.671875 158.457031 C 134.523438 158.285156 134.34375 158.355469 134.167969 158.394531 C 133.121094 158.613281 131.988281 158.621094 131.269531 159.613281 C 130.832031 159.757812 130.386719 159.894531 129.949219 160.042969 C 128.722656 160.460938 127.503906 160.886719 126.277344 161.308594 C 125.601562 161.539062 124.925781 161.765625 124.246094 161.992188 C 123.925781 160.902344 123.636719 159.804688 123.269531 158.734375 C 123.035156 158.054688 123.269531 157.429688 123.347656 156.785156 C 123.414062 156.242188 123.550781 155.710938 123.613281 155.164062 C 123.65625 154.816406 123.816406 154.546875 124.007812 154.265625 C 124.738281 153.199219 125.660156 152.359375 126.769531 151.695312 C 127.6875 151.152344 128.554688 150.527344 129.4375 149.929688 C 129.871094 149.640625 130.210938 149.238281 130.582031 148.882812 C 131.933594 147.601562 133.277344 146.316406 134.605469 145.015625 C 135.128906 144.507812 135.566406 143.914062 136.128906 143.441406 C 136.265625 143.324219 136.363281 143.128906 136.417969 142.949219 C 136.855469 141.597656 137.617188 140.398438 138.207031 139.121094 C 138.710938 138.035156 139.253906 136.96875 139.789062 135.894531 C 139.882812 135.710938 139.875 135.59375 139.714844 135.453125 C 139.449219 135.230469 139.226562 134.960938 138.957031 134.746094 C 138.195312 134.132812 137.832031 133.273438 137.472656 132.414062 C 137.390625 132.226562 137.414062 132.066406 137.527344 131.898438 C 138.023438 131.148438 138.5625 130.441406 139.203125 129.8125 C 139.242188 129.777344 139.28125 129.714844 139.320312 129.714844 C 139.769531 129.71875 139.882812 129.308594 140.125 129.058594 C 140.28125 128.898438 140.4375 128.730469 140.542969 128.535156 C 140.769531 128.125 141.132812 128.074219 141.527344 128.15625 C 141.789062 128.207031 142.050781 128.1875 142.3125 128.199219 C 143.199219 128.246094 144.089844 128.246094 144.992188 128.34375 C 144.636719 130.011719 144.332031 131.679688 143.910156 133.320312 C 143.6875 134.183594 143.773438 134.867188 144.324219 135.589844 C 145.050781 136.542969 145.652344 137.585938 146.3125 138.585938 C 146.417969 138.746094 146.480469 138.902344 146.460938 139.097656 C 146.375 139.996094 146.292969 140.894531 146.199219 141.792969 C 146.109375 142.648438 146.011719 143.503906 145.917969 144.359375 C 145.878906 144.6875 145.816406 145.015625 145.710938 145.332031 C 145.054688 147.242188 144.410156 149.15625 143.761719 151.066406 C 143.714844 151.203125 143.65625 151.324219 143.78125 151.460938 C 144.660156 152.414062 145.53125 153.378906 146.40625 154.339844 Z M 130.707031 176.734375 C 130.542969 177.152344 130.371094 177.554688 130.101562 177.921875 C 128.859375 179.617188 127.636719 181.328125 126.402344 183.03125 C 126.109375 183.429688 125.871094 183.882812 125.507812 184.21875 C 124.199219 185.421875 122.871094 186.605469 121.554688 187.796875 C 120.507812 188.746094 119.464844 189.699219 118.421875 190.648438 C 118.871094 190.585938 119.308594 190.460938 119.753906 190.367188 C 121.289062 190.03125 122.832031 189.703125 124.378906 189.417969 C 125.839844 189.148438 127.292969 188.886719 128.765625 188.691406 C 130.234375 188.496094 131.707031 188.320312 133.167969 188.085938 C 134.953125 187.804688 136.726562 187.484375 138.503906 187.15625 C 139.871094 186.90625 141.226562 186.582031 142.625 186.515625 C 142.78125 186.507812 142.832031 186.410156 142.859375 186.285156 C 142.972656 185.722656 143.078125 185.160156 143.109375 184.578125 C 143.136719 184.066406 143.1875 183.554688 143.246094 183.042969 C 143.332031 182.292969 143.429688 181.539062 143.457031 180.785156 C 143.492188 179.84375 143.511719 178.898438 143.410156 177.960938 C 143.375 177.636719 143.15625 177.316406 142.933594 177.300781 C 141.976562 177.238281 141.015625 177.183594 140.058594 177.117188 C 139.546875 177.082031 139.03125 177.035156 138.519531 176.984375 C 137.835938 176.914062 137.160156 176.816406 136.476562 176.753906 C 135.652344 176.679688 134.824219 176.644531 134 176.5625 C 132.964844 176.457031 131.929688 176.367188 130.886719 176.324219 C 130.789062 176.445312 130.761719 176.59375 130.707031 176.734375 Z M 130.707031 176.734375 " fill-opacity="1" fill-rule="nonzero"/></g><path fill="#004aad" d="M 156.167969 169.835938 C 156.460938 169.589844 156.746094 169.339844 157.039062 169.09375 C 157.464844 168.734375 157.902344 168.390625 158.378906 168.097656 C 158.53125 168.007812 158.609375 167.871094 158.667969 167.71875 C 158.949219 166.984375 159.445312 166.414062 160.089844 165.984375 C 160.410156 165.765625 160.746094 165.929688 161.0625 166.070312 C 161.777344 166.386719 162.175781 167.019531 162.605469 167.621094 C 162.765625 167.84375 162.914062 168.074219 163.09375 168.285156 C 163.285156 168.507812 163.257812 168.777344 163.289062 169.03125 C 163.324219 169.332031 163.296875 169.640625 163.3125 169.945312 C 163.320312 170.132812 163.230469 170.167969 163.070312 170.160156 C 161.796875 170.101562 160.519531 170.046875 159.242188 169.992188 C 159.121094 169.988281 159 169.988281 158.878906 169.984375 C 157.988281 169.960938 157.09375 169.933594 156.203125 169.910156 C 156.191406 169.882812 156.183594 169.859375 156.167969 169.835938 Z M 130.511719 160.359375 C 130.339844 160.511719 130.101562 160.640625 130.054688 160.871094 C 129.988281 161.21875 129.988281 161.578125 129.953125 161.929688 C 129.941406 162.039062 130.003906 162.050781 130.078125 162.050781 C 130.191406 162.050781 130.304688 162.050781 130.414062 162.042969 C 131.234375 161.988281 132.050781 161.921875 132.871094 161.871094 C 133.730469 161.820312 134.59375 161.8125 135.453125 161.730469 C 135.90625 161.6875 136.367188 161.734375 136.816406 161.628906 C 136.898438 161.613281 137.039062 161.640625 136.953125 161.488281 C 136.628906 160.917969 136.464844 160.261719 135.976562 159.78125 C 135.53125 159.351562 135.105469 158.902344 134.667969 158.460938 C 134.519531 158.285156 134.339844 158.359375 134.164062 158.394531 C 133.121094 158.613281 131.988281 158.625 131.269531 159.617188 C 131.035156 159.882812 130.78125 160.128906 130.511719 160.359375 Z M 136.695312 157.84375 C 137.496094 157.839844 138.292969 157.839844 139.09375 157.839844 C 139.277344 157.839844 139.347656 157.8125 139.21875 157.625 C 139.09375 157.445312 138.992188 157.246094 138.878906 157.054688 C 138.746094 156.925781 138.667969 156.742188 138.460938 156.675781 C 138.132812 156.570312 137.8125 156.441406 137.496094 156.308594 C 137.363281 156.253906 137.285156 156.269531 137.1875 156.390625 C 136.921875 156.730469 136.636719 157.0625 136.363281 157.402344 C 136.257812 157.535156 136.085938 157.628906 136.0625 157.851562 C 136.230469 157.851562 136.371094 157.851562 136.511719 157.851562 C 136.574219 157.847656 136.632812 157.84375 136.695312 157.84375 Z M 136.695312 157.84375 " fill-opacity="1" fill-rule="nonzero"/><g clip-path="url(#b20afe29b1)"><g clip-path="url(#a4ab9883b5)"><path fill="#c1ff72" d="M 153.515625 128.078125 L 275.039062 128.078125 L 275.039062 278.9375 L 153.515625 278.9375 Z M 153.515625 128.078125 " fill-opacity="1" fill-rule="nonzero"/></g></g></svg>