<svg xmlns="http://www.w3.org/2000/svg" xmlns:xlink="http://www.w3.org/1999/xlink" width="1200" zoomAndPan="magnify" viewBox="0 0 900 809.999993" height="1080" preserveAspectRatio="xMidYMid meet" version="1.0"><defs><clipPath id="aebaf622ea"><path d="M 9.449219 594.515625 L 418.296875 594.515625 L 418.296875 810 L 9.449219 810 Z M 9.449219 594.515625 " clip-rule="nonzero"/></clipPath><clipPath id="5d2ce5b4a8"><path d="M 213.871094 594.515625 C 100.972656 594.515625 9.449219 716.6875 9.449219 867.398438 C 9.449219 1018.105469 100.972656 1140.277344 213.871094 1140.277344 C 326.773438 1140.277344 418.296875 1018.105469 418.296875 867.398438 C 418.296875 716.6875 326.773438 594.515625 213.871094 594.515625 Z M 213.871094 594.515625 " clip-rule="nonzero"/></clipPath><clipPath id="07c2b2ec66"><path d="M 151 185 L 750 185 L 750 785 L 151 785 Z M 151 185 " clip-rule="nonzero"/></clipPath><clipPath id="995b2ff92d"><path d="M 157.921875 175.894531 L 758.660156 192.476562 L 742.074219 793.214844 L 141.339844 776.628906 Z M 157.921875 175.894531 " clip-rule="nonzero"/></clipPath><clipPath id="499b044545"><path d="M 462.425781 188.121094 L 497.183594 241.976562 C 499.429688 245.457031 504.070312 246.460938 507.550781 244.214844 L 561.3125 209.535156 C 562.738281 208.617188 564.527344 208.457031 566.089844 209.113281 C 567.65625 209.769531 568.796875 211.152344 569.140625 212.8125 L 582.179688 275.664062 C 583.019531 279.722656 586.988281 282.335938 591.050781 281.5 L 653.632812 268.671875 C 655.296875 268.328125 657.023438 268.828125 658.246094 270.007812 C 659.472656 271.183594 660.035156 272.886719 659.761719 274.5625 L 649.308594 337.910156 C 648.636719 342 651.394531 345.871094 655.484375 346.570312 L 718.449219 357.308594 C 720.125 357.59375 721.554688 358.683594 722.269531 360.226562 C 722.988281 361.769531 722.902344 363.566406 722.039062 365.03125 L 689.515625 420.300781 C 687.410156 423.878906 688.585938 428.484375 692.148438 430.617188 L 747.003906 463.484375 C 748.464844 464.359375 749.402344 465.894531 749.515625 467.59375 C 749.625 469.292969 748.894531 470.9375 747.558594 471.992188 L 697.375 511.722656 C 694.117188 514.300781 693.546875 519.019531 696.097656 522.296875 L 735.441406 572.863281 C 736.484375 574.207031 736.804688 575.980469 736.292969 577.601562 C 735.78125 579.226562 734.503906 580.492188 732.878906 580.996094 L 671.8125 599.832031 C 667.847656 601.054688 665.613281 605.25 666.808594 609.226562 L 685.308594 670.675781 C 685.796875 672.300781 685.457031 674.066406 684.394531 675.390625 C 683.332031 676.71875 681.683594 677.4375 679.988281 677.316406 L 616.285156 672.730469 C 612.148438 672.433594 608.550781 675.535156 608.238281 679.667969 L 603.378906 743.691406 C 603.25 745.382812 602.296875 746.90625 600.832031 747.757812 C 599.363281 748.609375 597.570312 748.683594 596.035156 747.957031 L 538.28125 720.5625 C 534.535156 718.789062 530.0625 720.382812 528.28125 724.121094 L 500.730469 782.054688 C 500 783.585938 498.566406 784.660156 496.890625 784.925781 C 495.214844 785.191406 493.519531 784.613281 492.351562 783.382812 L 448.339844 736.867188 C 446.972656 735.421875 445.085938 734.578125 443.097656 734.523438 C 441.109375 734.46875 439.183594 735.207031 437.738281 736.574219 L 391.222656 780.589844 C 389.992188 781.753906 388.265625 782.238281 386.609375 781.882812 C 384.953125 781.523438 383.578125 780.375 382.933594 778.804688 L 358.621094 719.4375 C 357.050781 715.605469 352.671875 713.765625 348.835938 715.332031 L 289.652344 739.5 C 288.082031 740.140625 286.296875 739.964844 284.878906 739.035156 C 283.460938 738.101562 282.589844 736.53125 282.554688 734.835938 L 281.238281 670.640625 C 281.15625 666.496094 277.734375 663.199219 273.585938 663.269531 L 209.726562 664.335938 C 208.027344 664.363281 206.421875 663.554688 205.433594 662.171875 C 204.445312 660.785156 204.203125 659.007812 204.78125 657.40625 L 226.640625 597.074219 C 228.054688 593.171875 226.054688 588.859375 222.164062 587.417969 L 162.230469 565.242188 C 160.636719 564.652344 159.429688 563.3125 159.011719 561.664062 C 158.589844 560.015625 159.003906 558.265625 160.121094 556.980469 L 202.195312 508.660156 C 204.921875 505.53125 204.613281 500.785156 201.503906 498.03125 L 153.585938 455.59375 C 152.3125 454.464844 151.675781 452.785156 151.878906 451.09375 C 152.082031 449.402344 153.101562 447.921875 154.609375 447.128906 L 211.199219 417.339844 C 214.871094 415.40625 216.296875 410.871094 214.394531 407.183594 L 184.96875 350.207031 C 184.1875 348.695312 184.203125 346.894531 185.003906 345.394531 C 185.804688 343.894531 187.289062 342.882812 188.980469 342.691406 L 252.441406 335.441406 C 256.566406 334.972656 259.53125 331.261719 259.082031 327.136719 L 252.144531 263.3125 C 251.960938 261.621094 252.621094 259.953125 253.90625 258.84375 C 255.195312 257.734375 256.945312 257.332031 258.585938 257.765625 L 320.367188 274.027344 C 324.375 275.085938 328.480469 272.695312 329.546875 268.691406 L 346.03125 206.65625 C 346.46875 205.015625 347.683594 203.695312 349.28125 203.128906 C 350.878906 202.5625 352.65625 202.816406 354.027344 203.8125 L 405.796875 241.40625 C 409.148438 243.839844 413.839844 243.09375 416.273438 239.746094 L 453.949219 187.886719 C 454.945312 186.515625 456.554688 185.722656 458.25 185.769531 C 459.941406 185.816406 461.503906 186.699219 462.425781 188.121094 Z M 462.425781 188.121094 " clip-rule="nonzero"/></clipPath><clipPath id="a12a9b6079"><path d="M 261 284 L 631 284 L 631 654 L 261 654 Z M 261 284 " clip-rule="nonzero"/></clipPath><clipPath id="b67b8bad16"><path d="M 267.136719 279.53125 L 635.542969 289.703125 L 625.371094 658.109375 L 256.964844 647.9375 Z M 267.136719 279.53125 " clip-rule="nonzero"/></clipPath><clipPath id="c9352a7d51"><path d="M 451.339844 284.617188 C 349.605469 281.808594 264.859375 362.003906 262.050781 463.734375 C 259.242188 565.46875 339.4375 650.214844 441.167969 653.023438 C 542.902344 655.832031 627.648438 575.636719 630.457031 473.90625 C 633.265625 372.171875 553.070312 287.425781 451.339844 284.617188 Z M 451.339844 284.617188 " clip-rule="nonzero"/></clipPath><clipPath id="fd86d408bf"><path d="M 282 448 L 378 448 L 378 506 L 282 506 Z M 282 448 " clip-rule="nonzero"/></clipPath><clipPath id="37e7c080ca"><path d="M 283.742188 447.46875 L 378.28125 450.078125 L 376.726562 506.363281 L 282.1875 503.753906 Z M 283.742188 447.46875 " clip-rule="nonzero"/></clipPath><clipPath id="141ec60a24"><path d="M 330.90625 448.769531 C 304.855469 448.050781 283.394531 460.066406 282.964844 475.609375 C 282.535156 491.152344 303.304688 504.335938 329.351562 505.054688 C 355.398438 505.773438 376.863281 493.757812 377.292969 478.214844 C 377.722656 462.671875 356.953125 449.488281 330.90625 448.769531 Z M 330.90625 448.769531 " clip-rule="nonzero"/></clipPath><clipPath id="eb4738447b"><path d="M 515 455 L 610 455 L 610 506 L 515 506 Z M 515 455 " clip-rule="nonzero"/></clipPath><clipPath id="4d95856759"><path d="M 515.992188 453.878906 L 610.480469 456.488281 L 609.101562 506.359375 L 514.617188 503.753906 Z M 515.992188 453.878906 " clip-rule="nonzero"/></clipPath><clipPath id="0a3c8fa212"><path d="M 563.15625 455.179688 C 537.109375 454.460938 515.683594 465.042969 515.304688 478.816406 C 514.925781 492.585938 535.734375 504.335938 561.78125 505.054688 C 587.828125 505.773438 609.253906 495.191406 609.632812 481.417969 C 610.011719 467.648438 589.207031 455.898438 563.15625 455.179688 Z M 563.15625 455.179688 " clip-rule="nonzero"/></clipPath><clipPath id="7bce96ddc4"><path d="M 245.578125 594.515625 L 654.421875 594.515625 L 654.421875 810 L 245.578125 810 Z M 245.578125 594.515625 " clip-rule="nonzero"/></clipPath><clipPath id="823723c6eb"><path d="M 450 594.515625 C 337.101562 594.515625 245.578125 716.6875 245.578125 867.398438 C 245.578125 1018.105469 337.101562 1140.277344 450 1140.277344 C 562.898438 1140.277344 654.421875 1018.105469 654.421875 867.398438 C 654.421875 716.6875 562.898438 594.515625 450 594.515625 Z M 450 594.515625 " clip-rule="nonzero"/></clipPath><clipPath id="1305f7e03f"><path d="M 339.902344 595 L 573.902344 595 L 573.902344 810 L 339.902344 810 Z M 339.902344 595 " clip-rule="nonzero"/></clipPath><clipPath id="cf0c6fb22f"><path d="M 363 594.515625 L 458 594.515625 L 458 806 L 363 806 Z M 363 594.515625 " clip-rule="nonzero"/></clipPath><clipPath id="dbddb9369f"><path d="M 481.703125 594.515625 L 890.550781 594.515625 L 890.550781 810 L 481.703125 810 Z M 481.703125 594.515625 " clip-rule="nonzero"/></clipPath><clipPath id="d5bf361002"><path d="M 686.128906 594.515625 C 573.226562 594.515625 481.703125 708.140625 481.703125 848.308594 C 481.703125 988.476562 573.226562 1102.105469 686.128906 1102.105469 C 799.027344 1102.105469 890.550781 988.476562 890.550781 848.308594 C 890.550781 708.140625 799.027344 594.515625 686.128906 594.515625 Z M 686.128906 594.515625 " clip-rule="nonzero"/></clipPath></defs><g clip-path="url(#aebaf622ea)"><g clip-path="url(#5d2ce5b4a8)"><path fill="#00bf63" d="M 9.449219 594.515625 L 418.296875 594.515625 L 418.296875 1140.707031 L 9.449219 1140.707031 Z M 9.449219 594.515625 " fill-opacity="1" fill-rule="nonzero"/></g></g><g clip-path="url(#07c2b2ec66)"><g clip-path="url(#995b2ff92d)"><g clip-path="url(#499b044545)"><path fill="#ff7e2c" d="M 155.625 173.460938 L 761.089844 190.175781 L 744.375 795.644531 L 138.910156 778.929688 Z M 155.625 173.460938 " fill-opacity="1" fill-rule="nonzero"/></g></g></g><g clip-path="url(#a12a9b6079)"><g clip-path="url(#b67b8bad16)"><g clip-path="url(#c9352a7d51)"><path fill="#ffeb4b" d="M 267.136719 279.53125 L 635.542969 289.703125 L 625.371094 658.109375 L 256.964844 647.9375 Z M 267.136719 279.53125 " fill-opacity="1" fill-rule="nonzero"/></g></g></g><g clip-path="url(#fd86d408bf)"><g clip-path="url(#37e7c080ca)"><g clip-path="url(#141ec60a24)"><path fill="#ffb6a3" d="M 283.742188 447.46875 L 378.0625 450.070312 L 376.507812 506.355469 L 282.1875 503.753906 Z M 283.742188 447.46875 " fill-opacity="1" fill-rule="nonzero"/></g></g></g><path stroke-linecap="round" transform="matrix(0.729148, 0.0201294, -0.0201294, 0.729148, 326.818874, 431.28355)" fill="none" stroke-linejoin="miter" d="M 12.396184 36.973419 C 34.364253 -0.362537 56.330095 -0.326067 78.293858 37.088181 " stroke="#472400" stroke-width="18" stroke-opacity="1" stroke-miterlimit="4"/><g clip-path="url(#eb4738447b)"><g clip-path="url(#4d95856759)"><g clip-path="url(#0a3c8fa212)"><path fill="#ffb6a3" d="M 515.992188 453.878906 L 610.285156 456.480469 L 608.90625 506.355469 L 514.617188 503.753906 Z M 515.992188 453.878906 " fill-opacity="1" fill-rule="nonzero"/></g></g></g><path stroke-linecap="round" transform="matrix(0.729148, 0.0201294, -0.0201294, 0.729148, 496.731075, 432.935302)" fill="none" stroke-linejoin="miter" d="M 12.393405 36.974307 C 34.361473 -0.361648 56.327315 -0.325178 78.296431 37.088922 " stroke="#472400" stroke-width="18" stroke-opacity="1" stroke-miterlimit="4"/><path stroke-linecap="round" transform="matrix(-0.729148, -0.0201294, 0.0201294, -0.729148, 478.109548, 495.733987)" fill="none" stroke-linejoin="miter" d="M 12.999672 25.130514 C 33.898568 3.595898 54.792736 3.624452 75.687529 25.216028 " stroke="#472400" stroke-width="18" stroke-opacity="1" stroke-miterlimit="4"/><g clip-path="url(#7bce96ddc4)"><g clip-path="url(#823723c6eb)"><path fill="#7ed957" d="M 245.578125 594.515625 L 654.421875 594.515625 L 654.421875 1140.707031 L 245.578125 1140.707031 Z M 245.578125 594.515625 " fill-opacity="1" fill-rule="nonzero"/></g></g><g clip-path="url(#1305f7e03f)"><path fill="#004aad" d="M 571.429688 805.320312 C 569.410156 812.910156 567.316406 820.480469 565.453125 828.109375 C 565.363281 828.472656 565.214844 828.828125 565.351562 829.207031 C 490.199219 829.207031 415.050781 829.207031 339.902344 829.207031 C 347.28125 820.851562 354.714844 812.542969 363.304688 805.378906 C 363.40625 805.292969 363.53125 805.226562 363.640625 805.152344 C 364.078125 805.085938 364.515625 805.007812 364.945312 804.917969 L 367.304688 802.757812 C 369.75 800.527344 372.195312 798.296875 374.640625 796.074219 C 376.175781 794.679688 377.714844 793.296875 379.253906 791.914062 C 382.109375 789.339844 385.066406 786.675781 387.945312 784.023438 C 388.871094 783.167969 389.558594 782.132812 390.222656 781.128906 C 390.492188 780.714844 390.765625 780.308594 391.050781 779.910156 C 392.695312 777.648438 394.324219 775.378906 395.964844 773.113281 C 398.464844 769.640625 400.96875 766.175781 403.492188 762.722656 C 404.480469 761.367188 405.109375 759.871094 405.617188 758.574219 C 405.671875 758.433594 405.71875 758.292969 405.765625 758.152344 C 405.871094 757.839844 405.960938 757.570312 406.117188 757.375 L 406.21875 757.25 L 406.253906 757.097656 C 406.269531 757.050781 406.289062 757.007812 406.300781 756.960938 C 406.058594 756.953125 405.8125 756.933594 405.570312 756.921875 C 406.089844 754.882812 407.53125 753.34375 408.53125 751.566406 C 409.929688 749.085938 410.933594 746.433594 412 743.8125 C 413.085938 741.160156 411.832031 739.003906 410.308594 736.917969 C 406.972656 732.335938 403.164062 728.203125 398.957031 724.417969 C 397.6875 723.28125 396.507812 722.015625 395.457031 720.679688 C 393.289062 717.925781 390.628906 715.757812 387.746094 713.835938 C 385.914062 712.617188 384.085938 711.402344 383.332031 709.167969 C 383.277344 709.007812 383.25 708.839844 383.210938 708.675781 C 383.4375 708.601562 383.660156 708.527344 383.882812 708.449219 C 383.558594 707.347656 383.253906 706.277344 382.949219 705.210938 C 382.222656 702.664062 381.46875 700.03125 380.59375 697.472656 C 380.070312 695.929688 380.335938 694.457031 380.625 692.894531 C 380.726562 692.34375 380.824219 691.789062 380.890625 691.230469 C 381 690.34375 381.167969 689.4375 381.332031 688.5625 C 381.5 687.652344 381.675781 686.714844 381.785156 685.773438 C 381.898438 684.8125 382.316406 684.054688 382.992188 683.0625 C 385.34375 679.625 388.3125 676.863281 392.070312 674.621094 C 394.371094 673.246094 396.621094 671.707031 398.792969 670.214844 C 399.554688 669.695312 400.316406 669.167969 401.085938 668.652344 C 402.1875 667.910156 403.109375 666.976562 403.992188 666.078125 C 404.335938 665.730469 404.679688 665.382812 405.03125 665.050781 C 409.394531 660.898438 414.050781 656.445312 418.570312 652.027344 C 419.292969 651.320312 419.972656 650.5625 420.628906 649.832031 C 421.574219 648.777344 422.554688 647.683594 423.652344 646.765625 C 424.28125 646.234375 424.648438 645.394531 424.84375 644.78125 C 425.789062 641.863281 427.230469 639.089844 428.617188 636.410156 C 429.363281 634.972656 430.136719 633.484375 430.832031 631.976562 C 432.257812 628.878906 433.820312 625.773438 435.332031 622.765625 L 436.144531 621.136719 C 436.46875 620.496094 436.710938 619.644531 435.714844 618.796875 C 435.324219 618.464844 434.960938 618.097656 434.597656 617.730469 C 434.148438 617.277344 433.679688 616.8125 433.15625 616.394531 C 430.734375 614.453125 429.589844 611.722656 428.375 608.832031 C 428.203125 608.425781 428.238281 608.136719 428.496094 607.75 C 430.371094 604.910156 432.136719 602.71875 434.042969 600.839844 C 434.082031 600.800781 434.125 600.757812 434.167969 600.710938 C 435.472656 600.617188 436.105469 599.71875 436.621094 598.992188 C 436.804688 598.734375 436.972656 598.488281 437.160156 598.296875 C 437.679688 597.757812 438.277344 597.125 438.679688 596.386719 C 439.074219 595.675781 439.597656 595.359375 440.390625 595.359375 C 440.640625 595.359375 440.917969 595.394531 441.226562 595.453125 C 441.894531 595.589844 442.535156 595.59375 443.15625 595.597656 C 443.425781 595.597656 443.699219 595.605469 443.972656 595.617188 C 444.921875 595.664062 445.875 595.703125 446.832031 595.734375 C 448.578125 595.796875 450.378906 595.855469 452.167969 596.019531 C 451.871094 597.417969 451.589844 598.816406 451.304688 600.210938 C 450.515625 604.085938 449.699219 608.097656 448.703125 611.972656 C 447.863281 615.25 448.316406 617.71875 450.21875 620.222656 C 451.847656 622.367188 453.324219 624.699219 454.75 626.953125 C 455.453125 628.066406 456.152344 629.171875 456.875 630.265625 C 457.195312 630.75 457.308594 631.113281 457.265625 631.523438 L 456.941406 634.882812 C 456.757812 636.785156 456.582031 638.691406 456.382812 640.59375 C 456.152344 642.835938 455.898438 645.074219 455.648438 647.3125 L 455.429688 649.230469 C 455.300781 650.40625 455.078125 651.425781 454.765625 652.355469 C 453.296875 656.664062 451.835938 660.972656 450.375 665.285156 L 448.175781 671.78125 C 448.019531 672.222656 447.757812 672.964844 448.421875 673.691406 C 450.609375 676.078125 452.785156 678.472656 454.960938 680.867188 L 457.3125 683.453125 L 457.367188 683.496094 C 457.585938 683.394531 457.757812 683.25 457.78125 682.921875 C 466.585938 689.207031 476.628906 693.269531 485.980469 698.578125 C 487.613281 699.503906 489.304688 700.328125 490.957031 701.226562 C 492.339844 701.980469 493.753906 702.65625 495.304688 702.992188 C 500.226562 704.046875 504.480469 706.644531 508.910156 708.839844 C 516.917969 712.8125 523.746094 718.414062 530.496094 724.183594 C 535.589844 728.542969 540.5625 733.035156 545.679688 737.363281 C 550.308594 741.269531 554.792969 745.347656 558.800781 749.886719 C 561.179688 752.574219 563.1875 755.554688 564.835938 758.761719 C 566.335938 761.675781 568.070312 764.460938 569.414062 767.464844 C 571.269531 771.617188 572.460938 775.890625 573.027344 780.421875 C 573.359375 783.121094 573.601562 785.824219 573.777344 788.535156 C 574.148438 794.289062 572.894531 799.828125 571.429688 805.320312 Z M 571.429688 805.320312 " fill-opacity="1" fill-rule="nonzero"/></g><g clip-path="url(#cf0c6fb22f)"><path fill="#004aad" d="M 457.785156 682.925781 C 457.75 683.460938 457.316406 683.527344 456.925781 683.660156 C 452.898438 685.046875 448.867188 686.429688 444.84375 687.835938 C 441.136719 689.125 437.441406 690.4375 433.738281 691.730469 C 433.324219 691.878906 432.886719 691.957031 432.460938 692.066406 C 432.007812 691.625 431.742188 691.015625 431.050781 690.789062 C 429.953125 690.433594 428.875 689.996094 427.804688 689.554688 C 427.355469 689.367188 427.089844 689.417969 426.773438 689.828125 C 425.878906 690.980469 424.910156 692.085938 424 693.234375 C 423.644531 693.679688 423.066406 694 422.984375 694.742188 C 423.546875 694.742188 424.019531 694.742188 424.5 694.742188 C 422.46875 695.527344 420.382812 696.164062 418.300781 696.789062 C 417.800781 696.203125 417.195312 696.445312 416.605469 696.574219 C 413.089844 697.308594 409.28125 697.34375 406.859375 700.683594 C 405.378906 701.160156 403.886719 701.621094 402.410156 702.121094 C 398.289062 703.53125 394.183594 704.964844 390.066406 706.382812 C 387.792969 707.160156 385.507812 707.921875 383.226562 708.6875 C 382.144531 705.023438 381.171875 701.324219 379.9375 697.714844 C 379.15625 695.425781 379.941406 693.328125 380.207031 691.160156 C 380.425781 689.332031 380.886719 687.535156 381.101562 685.703125 C 381.242188 684.527344 381.777344 683.625 382.425781 682.679688 C 384.878906 679.089844 387.984375 676.261719 391.722656 674.027344 C 394.800781 672.191406 397.726562 670.09375 400.699219 668.085938 C 402.15625 667.105469 403.296875 665.757812 404.550781 664.558594 C 409.089844 660.242188 413.609375 655.921875 418.085938 651.539062 C 419.839844 649.824219 421.316406 647.832031 423.207031 646.238281 C 423.671875 645.84375 423.992188 645.179688 424.183594 644.578125 C 425.65625 640.03125 428.214844 636 430.199219 631.695312 C 431.886719 628.039062 433.714844 624.441406 435.523438 620.835938 C 435.835938 620.214844 435.8125 619.820312 435.265625 619.351562 C 434.382812 618.59375 433.628906 617.683594 432.722656 616.960938 C 430.152344 614.902344 428.941406 612.011719 427.722656 609.109375 C 427.457031 608.484375 427.535156 607.945312 427.910156 607.375 C 429.574219 604.859375 431.394531 602.472656 433.550781 600.355469 C 433.675781 600.238281 433.808594 600.03125 433.9375 600.03125 C 435.453125 600.035156 435.839844 598.664062 436.652344 597.824219 C 437.171875 597.285156 437.703125 596.710938 438.058594 596.0625 C 438.824219 594.675781 440.035156 594.507812 441.363281 594.777344 C 442.25 594.957031 443.125 594.882812 444.007812 594.929688 C 446.992188 595.082031 449.984375 595.082031 453.019531 595.417969 C 451.824219 601.03125 450.800781 606.648438 449.390625 612.164062 C 448.636719 615.078125 448.929688 617.371094 450.78125 619.808594 C 453.21875 623.011719 455.242188 626.527344 457.46875 629.890625 C 457.824219 630.425781 458.035156 630.960938 457.972656 631.609375 C 457.679688 634.632812 457.402344 637.660156 457.085938 640.683594 C 456.785156 643.566406 456.457031 646.445312 456.136719 649.324219 C 456.007812 650.4375 455.800781 651.53125 455.4375 652.601562 C 453.242188 659.03125 451.070312 665.472656 448.886719 671.90625 C 448.730469 672.363281 448.53125 672.777344 448.949219 673.230469 C 451.902344 676.449219 454.839844 679.691406 457.785156 682.925781 Z M 404.964844 758.320312 C 404.417969 759.71875 403.828125 761.074219 402.925781 762.3125 C 398.746094 768.023438 394.636719 773.777344 390.480469 779.507812 C 389.5 780.855469 388.695312 782.375 387.46875 783.511719 C 383.066406 787.566406 378.601562 791.542969 374.167969 795.5625 C 370.648438 798.753906 367.144531 801.960938 363.636719 805.160156 C 365.148438 804.941406 366.621094 804.527344 368.113281 804.203125 C 373.285156 803.082031 378.464844 801.972656 383.675781 801.007812 C 388.585938 800.109375 393.484375 799.230469 398.433594 798.570312 C 403.375 797.910156 408.328125 797.3125 413.25 796.535156 C 419.246094 795.582031 425.222656 794.5 431.191406 793.402344 C 435.792969 792.554688 440.359375 791.46875 445.058594 791.238281 C 445.59375 791.210938 445.753906 790.894531 445.84375 790.464844 C 446.230469 788.570312 446.582031 786.675781 446.6875 784.726562 C 446.777344 783 446.953125 781.269531 447.152344 779.554688 C 447.441406 777.023438 447.765625 774.492188 447.859375 771.953125 C 447.976562 768.785156 448.042969 765.605469 447.699219 762.441406 C 447.582031 761.351562 446.851562 760.277344 446.097656 760.226562 C 442.875 760.015625 439.652344 759.824219 436.429688 759.601562 C 434.703125 759.480469 432.976562 759.328125 431.25 759.152344 C 428.953125 758.914062 426.671875 758.59375 424.371094 758.386719 C 421.597656 758.132812 418.8125 758.011719 416.039062 757.734375 C 412.558594 757.386719 409.074219 757.078125 405.574219 756.933594 C 405.246094 757.335938 405.148438 757.847656 404.964844 758.320312 Z M 404.964844 758.320312 " fill-opacity="1" fill-rule="nonzero"/></g><path fill="#004aad" d="M 490.628906 735.089844 C 491.605469 734.261719 492.574219 733.425781 493.550781 732.597656 C 494.984375 731.378906 496.457031 730.222656 498.066406 729.246094 C 498.574219 728.941406 498.84375 728.480469 499.035156 727.96875 C 499.980469 725.488281 501.652344 723.578125 503.820312 722.125 C 504.902344 721.394531 506.027344 721.9375 507.097656 722.410156 C 509.503906 723.484375 510.839844 725.609375 512.285156 727.636719 C 512.820312 728.386719 513.324219 729.167969 513.921875 729.867188 C 514.566406 730.617188 514.480469 731.53125 514.585938 732.382812 C 514.707031 733.398438 514.613281 734.433594 514.660156 735.460938 C 514.6875 736.085938 514.390625 736.210938 513.851562 736.1875 C 509.5625 735.992188 505.265625 735.808594 500.972656 735.621094 C 500.5625 735.601562 500.152344 735.605469 499.742188 735.59375 C 496.746094 735.507812 493.746094 735.417969 490.75 735.335938 C 490.710938 735.25 490.671875 735.171875 490.628906 735.089844 Z M 404.308594 703.195312 C 403.726562 703.707031 402.925781 704.136719 402.769531 704.917969 C 402.542969 706.082031 402.550781 707.292969 402.433594 708.480469 C 402.394531 708.839844 402.597656 708.882812 402.855469 708.882812 C 403.230469 708.882812 403.609375 708.886719 403.984375 708.859375 C 406.738281 708.671875 409.492188 708.449219 412.246094 708.285156 C 415.140625 708.113281 418.046875 708.082031 420.929688 707.804688 C 422.457031 707.660156 424.007812 707.824219 425.515625 707.46875 C 425.792969 707.40625 426.273438 707.503906 425.980469 706.992188 C 424.894531 705.074219 424.339844 702.855469 422.6875 701.246094 C 421.191406 699.792969 419.757812 698.28125 418.292969 696.792969 C 417.789062 696.207031 417.183594 696.453125 416.59375 696.578125 C 413.082031 697.316406 409.273438 697.347656 406.851562 700.6875 C 406.066406 701.582031 405.210938 702.410156 404.308594 703.195312 Z M 425.109375 694.71875 C 427.800781 694.710938 430.492188 694.703125 433.1875 694.707031 C 433.800781 694.707031 434.039062 694.613281 433.605469 693.988281 C 433.175781 693.378906 432.835938 692.707031 432.460938 692.066406 C 432.007812 691.625 431.742188 691.015625 431.050781 690.789062 C 429.953125 690.433594 428.875 689.996094 427.804688 689.554688 C 427.355469 689.367188 427.089844 689.417969 426.773438 689.828125 C 425.878906 690.980469 424.910156 692.085938 424 693.234375 C 423.644531 693.679688 423.066406 694 422.984375 694.742188 C 423.546875 694.742188 424.019531 694.742188 424.5 694.742188 C 424.699219 694.734375 424.902344 694.71875 425.109375 694.71875 Z M 425.109375 694.71875 " fill-opacity="1" fill-rule="nonzero"/><g clip-path="url(#dbddb9369f)"><g clip-path="url(#d5bf361002)"><path fill="#c1ff72" d="M 481.703125 594.515625 L 890.550781 594.515625 L 890.550781 1102.375 L 481.703125 1102.375 Z M 481.703125 594.515625 " fill-opacity="1" fill-rule="nonzero"/></g></g></svg>