<svg xmlns="http://www.w3.org/2000/svg" xmlns:xlink="http://www.w3.org/1999/xlink" width="1200" zoomAndPan="magnify" viewBox="0 0 900 809.999993" height="1080" preserveAspectRatio="xMidYMid meet" version="1.0"><defs><g/><clipPath id="204b24cdd3"><path d="M 44.070312 403.253906 L 418.269531 403.253906 L 418.269531 602.976562 L 44.070312 602.976562 Z M 44.070312 403.253906 " clip-rule="nonzero"/></clipPath><clipPath id="232ea33de9"><path d="M 228.832031 403.253906 C 124.214844 403.253906 39.402344 516.492188 39.402344 656.175781 C 39.402344 795.859375 124.214844 909.09375 228.832031 909.09375 C 333.457031 909.09375 418.269531 795.859375 418.269531 656.175781 C 418.269531 516.492188 333.457031 403.253906 228.832031 403.253906 Z M 228.832031 403.253906 " clip-rule="nonzero"/></clipPath><clipPath id="a8412513e7"><path d="M 171 24.027344 L 725.648438 24.027344 L 725.648438 579.804688 L 171 579.804688 Z M 171 24.027344 " clip-rule="nonzero"/></clipPath><clipPath id="d83a349eb4"><path d="M 176.988281 15.257812 L 733.671875 30.625 L 718.300781 587.417969 L 161.621094 572.046875 Z M 176.988281 15.257812 " clip-rule="nonzero"/></clipPath><clipPath id="9913cda712"><path d="M 459.160156 26.589844 L 491.371094 76.503906 C 493.453125 79.730469 497.75 80.660156 500.976562 78.578125 L 550.796875 46.4375 C 552.117188 45.585938 553.773438 45.4375 555.222656 46.046875 C 556.675781 46.652344 557.730469 47.9375 558.050781 49.472656 L 570.132812 107.726562 C 570.910156 111.488281 574.589844 113.910156 578.355469 113.136719 L 636.347656 101.246094 C 637.886719 100.929688 639.488281 101.390625 640.621094 102.484375 C 641.757812 103.574219 642.277344 105.152344 642.027344 106.707031 L 632.339844 165.421875 C 631.714844 169.210938 634.273438 172.800781 638.0625 173.449219 L 696.410156 183.398438 C 697.960938 183.664062 699.289062 184.675781 699.949219 186.105469 C 700.617188 187.535156 700.535156 189.199219 699.734375 190.558594 L 669.597656 241.785156 C 667.648438 245.101562 668.734375 249.371094 672.039062 251.347656 L 722.871094 281.808594 C 724.222656 282.621094 725.09375 284.042969 725.199219 285.617188 C 725.300781 287.191406 724.621094 288.71875 723.382812 289.695312 L 676.878906 326.519531 C 673.863281 328.910156 673.332031 333.28125 675.695312 336.320312 L 712.15625 383.1875 C 713.121094 384.433594 713.417969 386.074219 712.945312 387.578125 C 712.46875 389.085938 711.285156 390.257812 709.78125 390.726562 L 653.191406 408.183594 C 649.519531 409.316406 647.449219 413.203125 648.554688 416.890625 L 665.699219 473.84375 C 666.152344 475.351562 665.835938 476.988281 664.851562 478.214844 C 663.867188 479.445312 662.339844 480.113281 660.769531 480 L 601.738281 475.75 C 597.902344 475.472656 594.570312 478.347656 594.28125 482.179688 L 589.777344 541.519531 C 589.660156 543.085938 588.773438 544.5 587.417969 545.289062 C 586.054688 546.078125 584.394531 546.144531 582.972656 545.472656 L 529.453125 520.082031 C 525.984375 518.4375 521.835938 519.914062 520.1875 523.378906 L 494.65625 577.074219 C 493.980469 578.496094 492.652344 579.492188 491.097656 579.738281 C 489.546875 579.984375 487.976562 579.449219 486.890625 578.308594 L 446.109375 535.195312 C 444.839844 533.855469 443.09375 533.070312 441.25 533.023438 C 439.40625 532.972656 437.625 533.65625 436.285156 534.921875 L 393.179688 575.71875 C 392.039062 576.796875 390.4375 577.246094 388.90625 576.917969 C 387.371094 576.582031 386.09375 575.519531 385.5 574.0625 L 362.96875 519.039062 C 361.511719 515.488281 357.457031 513.78125 353.902344 515.234375 L 299.058594 537.632812 C 297.601562 538.226562 295.949219 538.066406 294.632812 537.203125 C 293.320312 536.339844 292.511719 534.882812 292.480469 533.3125 L 291.261719 473.8125 C 291.183594 469.96875 288.015625 466.914062 284.167969 466.980469 L 224.992188 467.96875 C 223.417969 467.992188 221.929688 467.246094 221.015625 465.960938 C 220.097656 464.675781 219.875 463.03125 220.410156 461.546875 L 240.667969 405.625 C 241.976562 402.011719 240.125 398.011719 236.519531 396.675781 L 180.980469 376.125 C 179.503906 375.578125 178.386719 374.335938 177.996094 372.808594 C 177.605469 371.277344 177.992188 369.65625 179.027344 368.464844 L 218.015625 323.679688 C 220.539062 320.78125 220.253906 316.382812 217.375 313.828125 L 172.96875 274.496094 C 171.789062 273.449219 171.199219 271.894531 171.386719 270.324219 C 171.574219 268.757812 172.519531 267.386719 173.917969 266.648438 L 226.359375 239.039062 C 229.761719 237.25 231.082031 233.042969 229.320312 229.625 L 202.050781 176.816406 C 201.328125 175.417969 201.339844 173.75 202.082031 172.359375 C 202.824219 170.96875 204.199219 170.03125 205.769531 169.851562 L 264.574219 163.132812 C 268.398438 162.699219 271.144531 159.257812 270.730469 155.4375 L 264.300781 96.28125 C 264.128906 94.710938 264.742188 93.167969 265.933594 92.136719 C 267.128906 91.109375 268.75 90.738281 270.269531 91.140625 L 327.519531 106.210938 C 331.234375 107.191406 335.039062 104.976562 336.027344 101.265625 L 351.300781 43.769531 C 351.707031 42.246094 352.832031 41.023438 354.3125 40.5 C 355.792969 39.972656 357.441406 40.210938 358.710938 41.132812 L 406.683594 75.976562 C 409.789062 78.230469 414.136719 77.539062 416.394531 74.4375 L 451.304688 26.371094 C 452.230469 25.101562 453.71875 24.367188 455.292969 24.410156 C 456.859375 24.453125 458.308594 25.269531 459.160156 26.589844 Z M 459.160156 26.589844 " clip-rule="nonzero"/></clipPath><clipPath id="df2cd82b97"><path d="M 273 115.453125 L 615 115.453125 L 615 458 L 273 458 Z M 273 115.453125 " clip-rule="nonzero"/></clipPath><clipPath id="53ce6cb60c"><path d="M 278.191406 111.3125 L 619.582031 120.742188 L 610.15625 462.199219 L 268.765625 452.769531 Z M 278.191406 111.3125 " clip-rule="nonzero"/></clipPath><clipPath id="48ecef777e"><path d="M 448.886719 116.027344 C 354.613281 113.421875 276.082031 187.753906 273.480469 282.039062 C 270.878906 376.332031 345.191406 454.878906 439.460938 457.484375 C 533.734375 460.085938 612.265625 385.757812 614.871094 291.46875 C 617.472656 197.175781 543.160156 118.628906 448.886719 116.027344 Z M 448.886719 116.027344 " clip-rule="nonzero"/></clipPath><clipPath id="7f89de02f2"><path d="M 292 268 L 380.925781 268 L 380.925781 321 L 292 321 Z M 292 268 " clip-rule="nonzero"/></clipPath><clipPath id="63473e4eb2"><path d="M 293.582031 266.964844 L 381.1875 269.382812 L 379.746094 321.550781 L 292.140625 319.132812 Z M 293.582031 266.964844 " clip-rule="nonzero"/></clipPath><clipPath id="20b2adb467"><path d="M 337.285156 268.171875 C 313.144531 267.503906 293.257812 278.640625 292.859375 293.046875 C 292.460938 307.453125 311.707031 319.671875 335.847656 320.339844 C 359.984375 321.003906 379.875 309.867188 380.269531 295.460938 C 380.667969 281.054688 361.421875 268.835938 337.285156 268.171875 Z M 337.285156 268.171875 " clip-rule="nonzero"/></clipPath><clipPath id="21ac2f4a39"><path d="M 508 274 L 595.914062 274 L 595.914062 321 L 508 321 Z M 508 274 " clip-rule="nonzero"/></clipPath><clipPath id="4099620903"><path d="M 508.800781 272.90625 L 596.359375 275.324219 L 595.082031 321.546875 L 507.523438 319.132812 Z M 508.800781 272.90625 " clip-rule="nonzero"/></clipPath><clipPath id="9c10f00ea8"><path d="M 552.503906 274.113281 C 528.367188 273.445312 508.511719 283.253906 508.164062 296.019531 C 507.8125 308.78125 527.09375 319.671875 551.230469 320.339844 C 575.367188 321.003906 595.222656 311.195312 595.574219 298.429688 C 595.925781 285.667969 576.644531 274.777344 552.503906 274.113281 Z M 552.503906 274.113281 " clip-rule="nonzero"/></clipPath><clipPath id="af95734bfa"><path d="M 258.214844 403.253906 L 637.078125 403.253906 L 637.078125 602.976562 L 258.214844 602.976562 Z M 258.214844 403.253906 " clip-rule="nonzero"/></clipPath><clipPath id="e944249b5d"><path d="M 447.648438 403.253906 C 343.027344 403.253906 258.214844 516.492188 258.214844 656.175781 C 258.214844 795.859375 343.027344 909.09375 447.648438 909.09375 C 552.265625 909.09375 637.078125 795.859375 637.078125 656.175781 C 637.078125 516.492188 552.265625 403.253906 447.648438 403.253906 Z M 447.648438 403.253906 " clip-rule="nonzero"/></clipPath><clipPath id="401502aa93"><path d="M 345.621094 404 L 562.460938 404 L 562.460938 602.976562 L 345.621094 602.976562 Z M 345.621094 404 " clip-rule="nonzero"/></clipPath><clipPath id="95d8faece2"><path d="M 367.027344 403.253906 L 455.058594 403.253906 L 455.058594 599 L 367.027344 599 Z M 367.027344 403.253906 " clip-rule="nonzero"/></clipPath><clipPath id="1c64f1baea"><path d="M 477.023438 403.253906 L 855.570312 403.253906 L 855.570312 602.976562 L 477.023438 602.976562 Z M 477.023438 403.253906 " clip-rule="nonzero"/></clipPath><clipPath id="2d33cadc93"><path d="M 666.460938 403.253906 C 561.835938 403.253906 477.023438 508.570312 477.023438 638.484375 C 477.023438 768.398438 561.835938 873.714844 666.460938 873.714844 C 771.078125 873.714844 855.890625 768.398438 855.890625 638.484375 C 855.890625 508.570312 771.078125 403.253906 666.460938 403.253906 Z M 666.460938 403.253906 " clip-rule="nonzero"/></clipPath></defs><g clip-path="url(#204b24cdd3)"><g clip-path="url(#232ea33de9)"><path fill="#00bf63" d="M 39.402344 403.253906 L 418.269531 403.253906 L 418.269531 909.492188 L 39.402344 909.492188 Z M 39.402344 403.253906 " fill-opacity="1" fill-rule="nonzero"/></g></g><g clip-path="url(#a8412513e7)"><g clip-path="url(#d83a349eb4)"><g clip-path="url(#9913cda712)"><path fill="#ff7e2c" d="M 174.859375 13 L 735.921875 28.492188 L 720.433594 589.671875 L 159.371094 574.179688 Z M 174.859375 13 " fill-opacity="1" fill-rule="nonzero"/></g></g></g><g clip-path="url(#df2cd82b97)"><g clip-path="url(#53ce6cb60c)"><g clip-path="url(#48ecef777e)"><path fill="#ffeb4b" d="M 278.191406 111.3125 L 619.582031 120.742188 L 610.15625 462.199219 L 268.765625 452.769531 Z M 278.191406 111.3125 " fill-opacity="1" fill-rule="nonzero"/></g></g></g><g clip-path="url(#7f89de02f2)"><g clip-path="url(#63473e4eb2)"><g clip-path="url(#20b2adb467)"><path fill="#ffb6a3" d="M 293.582031 266.964844 L 380.984375 269.375 L 379.542969 321.542969 L 292.140625 319.132812 Z M 293.582031 266.964844 " fill-opacity="1" fill-rule="nonzero"/></g></g></g><path stroke-linecap="round" transform="matrix(0.675679, 0.0186575, -0.0186538, 0.675812, 333.498914, 251.964382)" fill="none" stroke-linejoin="miter" d="M 12.394052 36.974744 C 34.366696 -0.364306 56.330691 -0.323307 78.291492 37.086029 " stroke="#472400" stroke-width="18" stroke-opacity="1" stroke-miterlimit="4"/><g clip-path="url(#21ac2f4a39)"><g clip-path="url(#4099620903)"><g clip-path="url(#9c10f00ea8)"><path fill="#ffb6a3" d="M 508.800781 272.90625 L 596.175781 275.316406 L 594.898438 321.542969 L 507.523438 319.132812 Z M 508.800781 272.90625 " fill-opacity="1" fill-rule="nonzero"/></g></g></g><path stroke-linecap="round" transform="matrix(0.675679, 0.0186575, -0.0186538, 0.675812, 490.950651, 253.494588)" fill="none" stroke-linejoin="miter" d="M 12.396146 36.97623 C 34.363014 -0.36266 56.326849 -0.327437 78.293586 37.087516 " stroke="#472400" stroke-width="18" stroke-opacity="1" stroke-miterlimit="4"/><path stroke-linecap="round" transform="matrix(-0.675679, -0.0186575, 0.0186538, -0.675812, 473.695204, 311.699769)" fill="none" stroke-linejoin="miter" d="M 13.001894 25.13204 C 33.896157 3.596613 54.790323 3.626687 75.690011 25.216325 " stroke="#472400" stroke-width="18" stroke-opacity="1" stroke-miterlimit="4"/><g clip-path="url(#af95734bfa)"><g clip-path="url(#e944249b5d)"><path fill="#7ed957" d="M 258.214844 403.253906 L 637.078125 403.253906 L 637.078125 909.492188 L 258.214844 909.492188 Z M 258.214844 403.253906 " fill-opacity="1" fill-rule="nonzero"/></g></g><g clip-path="url(#401502aa93)"><path fill="#004aad" d="M 560.171875 598.640625 C 558.300781 605.675781 556.359375 612.691406 554.632812 619.761719 C 554.550781 620.097656 554.414062 620.429688 554.539062 620.777344 C 484.898438 620.777344 415.261719 620.777344 345.621094 620.777344 C 352.460938 613.035156 359.347656 605.332031 367.308594 598.695312 C 367.402344 598.613281 367.519531 598.550781 367.621094 598.484375 C 368.027344 598.421875 368.429688 598.351562 368.828125 598.265625 L 371.015625 596.265625 C 373.28125 594.195312 375.546875 592.128906 377.8125 590.070312 C 379.234375 588.777344 380.664062 587.496094 382.089844 586.214844 C 384.734375 583.828125 387.476562 581.359375 390.144531 578.902344 C 391 578.109375 391.636719 577.148438 392.253906 576.21875 C 392.503906 575.835938 392.757812 575.457031 393.019531 575.089844 C 394.542969 572.992188 396.054688 570.886719 397.574219 568.789062 C 399.890625 565.570312 402.210938 562.359375 404.550781 559.15625 C 405.464844 557.902344 406.046875 556.515625 406.519531 555.3125 C 406.570312 555.183594 406.613281 555.050781 406.65625 554.921875 C 406.753906 554.632812 406.835938 554.382812 406.980469 554.203125 L 407.074219 554.085938 L 407.109375 553.945312 C 407.121094 553.902344 407.140625 553.859375 407.152344 553.816406 C 406.925781 553.808594 406.699219 553.792969 406.476562 553.78125 C 406.957031 551.890625 408.292969 550.464844 409.21875 548.816406 C 410.515625 546.519531 411.445312 544.058594 412.433594 541.632812 C 413.441406 539.171875 412.277344 537.175781 410.867188 535.242188 C 407.773438 530.992188 404.246094 527.164062 400.347656 523.65625 C 399.171875 522.601562 398.078125 521.429688 397.101562 520.191406 C 395.09375 517.636719 392.628906 515.628906 389.957031 513.847656 C 388.261719 512.71875 386.566406 511.589844 385.867188 509.519531 C 385.816406 509.371094 385.792969 509.214844 385.753906 509.066406 C 385.964844 508.996094 386.171875 508.925781 386.378906 508.855469 C 386.078125 507.832031 385.796875 506.839844 385.511719 505.851562 C 384.839844 503.492188 384.140625 501.050781 383.332031 498.679688 C 382.84375 497.25 383.089844 495.886719 383.359375 494.4375 C 383.453125 493.925781 383.542969 493.414062 383.605469 492.894531 C 383.707031 492.074219 383.863281 491.234375 384.015625 490.421875 C 384.171875 489.578125 384.332031 488.710938 384.433594 487.835938 C 384.539062 486.945312 384.925781 486.246094 385.550781 485.324219 C 387.730469 482.140625 390.484375 479.578125 393.964844 477.5 C 396.097656 476.226562 398.183594 474.800781 400.195312 473.417969 C 400.902344 472.9375 401.605469 472.445312 402.320312 471.96875 C 403.339844 471.28125 404.195312 470.414062 405.011719 469.582031 C 405.332031 469.261719 405.648438 468.9375 405.976562 468.632812 C 410.019531 464.78125 414.332031 460.65625 418.523438 456.558594 C 419.191406 455.90625 419.820312 455.203125 420.429688 454.527344 C 421.304688 453.546875 422.214844 452.535156 423.230469 451.683594 C 423.8125 451.191406 424.152344 450.414062 424.335938 449.84375 C 425.210938 447.140625 426.546875 444.570312 427.832031 442.085938 C 428.523438 440.753906 429.238281 439.375 429.882812 437.976562 C 431.207031 435.105469 432.652344 432.226562 434.054688 429.4375 L 434.808594 427.929688 C 435.109375 427.335938 435.332031 426.546875 434.410156 425.761719 C 434.046875 425.453125 433.710938 425.113281 433.375 424.773438 C 432.957031 424.351562 432.523438 423.921875 432.039062 423.535156 C 429.792969 421.734375 428.734375 419.203125 427.609375 416.523438 C 427.449219 416.148438 427.480469 415.878906 427.71875 415.523438 C 429.457031 412.890625 431.09375 410.859375 432.859375 409.117188 C 432.894531 409.082031 432.9375 409.042969 432.976562 408.996094 C 434.183594 408.910156 434.769531 408.078125 435.25 407.40625 C 435.417969 407.164062 435.574219 406.9375 435.75 406.761719 C 436.230469 406.261719 436.785156 405.675781 437.15625 404.988281 C 437.523438 404.332031 438.007812 404.039062 438.742188 404.039062 C 438.972656 404.039062 439.230469 404.070312 439.515625 404.125 C 440.136719 404.25 440.730469 404.253906 441.304688 404.257812 C 441.554688 404.257812 441.808594 404.265625 442.0625 404.277344 C 442.941406 404.320312 443.824219 404.355469 444.710938 404.386719 C 446.328125 404.441406 447.996094 404.496094 449.65625 404.648438 C 449.378906 405.945312 449.121094 407.242188 448.855469 408.535156 C 448.125 412.125 447.367188 415.84375 446.445312 419.433594 C 445.667969 422.472656 446.085938 424.761719 447.847656 427.082031 C 449.359375 429.070312 450.726562 431.230469 452.046875 433.320312 C 452.699219 434.351562 453.347656 435.375 454.015625 436.390625 C 454.3125 436.839844 454.417969 437.175781 454.378906 437.554688 L 454.078125 440.667969 C 453.910156 442.433594 453.746094 444.199219 453.5625 445.964844 C 453.347656 448.042969 453.113281 450.117188 452.878906 452.191406 L 452.679688 453.96875 C 452.558594 455.058594 452.351562 456.003906 452.0625 456.863281 C 450.703125 460.859375 449.347656 464.851562 447.992188 468.847656 L 445.957031 474.867188 C 445.8125 475.277344 445.570312 475.964844 446.183594 476.640625 C 448.210938 478.851562 450.226562 481.070312 452.242188 483.289062 L 454.421875 485.6875 L 454.472656 485.726562 C 454.675781 485.632812 454.835938 485.5 454.855469 485.195312 C 463.015625 491.019531 472.324219 494.785156 480.988281 499.707031 C 482.5 500.5625 484.070312 501.328125 485.601562 502.160156 C 486.882812 502.859375 488.191406 503.484375 489.628906 503.796875 C 494.191406 504.773438 498.132812 507.183594 502.238281 509.214844 C 509.65625 512.898438 515.984375 518.089844 522.238281 523.4375 C 526.960938 527.480469 531.566406 531.640625 536.308594 535.652344 C 540.597656 539.273438 544.753906 543.054688 548.46875 547.261719 C 550.671875 549.75 552.535156 552.515625 554.0625 555.488281 C 555.453125 558.1875 557.058594 560.769531 558.304688 563.554688 C 560.023438 567.402344 561.128906 571.363281 561.652344 575.5625 C 561.960938 578.0625 562.183594 580.570312 562.347656 583.082031 C 562.691406 588.414062 561.527344 593.550781 560.171875 598.640625 Z M 560.171875 598.640625 " fill-opacity="1" fill-rule="nonzero"/></g><g clip-path="url(#95d8faece2)"><path fill="#004aad" d="M 454.859375 485.199219 C 454.828125 485.695312 454.425781 485.757812 454.066406 485.878906 C 450.332031 487.164062 446.597656 488.445312 442.867188 489.75 C 439.433594 490.945312 436.007812 492.160156 432.578125 493.359375 C 432.195312 493.496094 431.789062 493.570312 431.394531 493.671875 C 430.972656 493.261719 430.726562 492.695312 430.085938 492.488281 C 429.070312 492.15625 428.070312 491.75 427.078125 491.34375 C 426.664062 491.167969 426.417969 491.214844 426.125 491.597656 C 425.292969 492.664062 424.398438 493.6875 423.554688 494.753906 C 423.222656 495.164062 422.6875 495.460938 422.613281 496.148438 C 423.132812 496.148438 423.570312 496.148438 424.015625 496.148438 C 422.132812 496.878906 420.203125 497.46875 418.273438 498.046875 C 417.808594 497.503906 417.246094 497.730469 416.699219 497.847656 C 413.441406 498.527344 409.914062 498.5625 407.667969 501.65625 C 406.296875 502.097656 404.914062 502.527344 403.546875 502.988281 C 399.726562 504.296875 395.921875 505.625 392.109375 506.9375 C 390 507.660156 387.882812 508.367188 385.769531 509.074219 C 384.765625 505.679688 383.867188 502.25 382.722656 498.90625 C 382 496.785156 382.726562 494.839844 382.972656 492.832031 C 383.175781 491.136719 383.601562 489.46875 383.800781 487.773438 C 383.929688 486.683594 384.425781 485.847656 385.027344 484.96875 C 387.300781 481.644531 390.179688 479.023438 393.644531 476.949219 C 396.496094 475.25 399.207031 473.304688 401.960938 471.445312 C 403.3125 470.535156 404.367188 469.285156 405.53125 468.175781 C 409.738281 464.175781 413.925781 460.167969 418.074219 456.109375 C 419.699219 454.519531 421.066406 452.671875 422.820312 451.195312 C 423.25 450.828125 423.546875 450.214844 423.722656 449.65625 C 425.089844 445.441406 427.460938 441.707031 429.296875 437.714844 C 430.863281 434.328125 432.554688 430.992188 434.230469 427.652344 C 434.519531 427.074219 434.5 426.710938 433.992188 426.273438 C 433.175781 425.570312 432.476562 424.730469 431.636719 424.058594 C 429.253906 422.152344 428.132812 419.472656 427.003906 416.78125 C 426.757812 416.203125 426.828125 415.703125 427.175781 415.175781 C 428.71875 412.84375 430.40625 410.628906 432.402344 408.667969 C 432.519531 408.558594 432.640625 408.367188 432.761719 408.367188 C 434.167969 408.371094 434.523438 407.101562 435.277344 406.320312 C 435.757812 405.824219 436.25 405.289062 436.582031 404.6875 C 437.289062 403.402344 438.414062 403.25 439.644531 403.496094 C 440.464844 403.664062 441.277344 403.597656 442.09375 403.640625 C 444.859375 403.78125 447.632812 403.78125 450.445312 404.09375 C 449.335938 409.292969 448.386719 414.5 447.082031 419.613281 C 446.382812 422.3125 446.65625 424.4375 448.371094 426.699219 C 450.628906 429.667969 452.503906 432.925781 454.566406 436.042969 C 454.898438 436.539062 455.09375 437.035156 455.035156 437.636719 C 454.761719 440.4375 454.507812 443.242188 454.214844 446.046875 C 453.933594 448.71875 453.628906 451.386719 453.332031 454.054688 C 453.214844 455.085938 453.023438 456.101562 452.683594 457.09375 C 450.652344 463.050781 448.636719 469.023438 446.613281 474.984375 C 446.46875 475.410156 446.285156 475.792969 446.671875 476.210938 C 449.410156 479.195312 452.132812 482.199219 454.859375 485.199219 Z M 405.914062 555.078125 C 405.40625 556.375 404.859375 557.628906 404.023438 558.777344 C 400.152344 564.070312 396.34375 569.402344 392.492188 574.714844 C 391.582031 575.964844 390.835938 577.371094 389.699219 578.425781 C 385.621094 582.183594 381.484375 585.871094 377.375 589.59375 C 374.113281 592.554688 370.867188 595.527344 367.617188 598.492188 C 369.015625 598.289062 370.382812 597.90625 371.765625 597.605469 C 376.558594 596.566406 381.355469 595.535156 386.1875 594.640625 C 390.734375 593.808594 395.277344 592.996094 399.863281 592.382812 C 404.441406 591.769531 409.03125 591.21875 413.589844 590.496094 C 419.148438 589.613281 424.6875 588.609375 430.21875 587.59375 C 434.480469 586.808594 438.714844 585.800781 443.066406 585.585938 C 443.5625 585.5625 443.710938 585.269531 443.796875 584.871094 C 444.152344 583.113281 444.480469 581.359375 444.578125 579.550781 C 444.660156 577.953125 444.824219 576.347656 445.007812 574.757812 C 445.277344 572.414062 445.574219 570.066406 445.664062 567.714844 C 445.773438 564.777344 445.832031 561.828125 445.515625 558.898438 C 445.40625 557.886719 444.730469 556.890625 444.03125 556.84375 C 441.042969 556.648438 438.058594 556.472656 435.070312 556.265625 C 433.472656 556.152344 431.871094 556.011719 430.273438 555.847656 C 428.144531 555.628906 426.027344 555.332031 423.898438 555.140625 C 421.328125 554.902344 418.746094 554.792969 416.175781 554.535156 C 412.949219 554.210938 409.722656 553.925781 406.480469 553.792969 C 406.175781 554.164062 406.085938 554.640625 405.914062 555.078125 Z M 405.914062 555.078125 " fill-opacity="1" fill-rule="nonzero"/></g><path fill="#004aad" d="M 485.296875 533.546875 C 486.199219 532.777344 487.097656 532.003906 488.003906 531.238281 C 489.332031 530.105469 490.695312 529.035156 492.1875 528.128906 C 492.660156 527.847656 492.910156 527.421875 493.085938 526.945312 C 493.960938 524.648438 495.511719 522.875 497.519531 521.53125 C 498.523438 520.851562 499.566406 521.355469 500.558594 521.792969 C 502.785156 522.789062 504.023438 524.757812 505.363281 526.636719 C 505.859375 527.332031 506.328125 528.058594 506.882812 528.707031 C 507.476562 529.402344 507.398438 530.25 507.496094 531.039062 C 507.609375 531.980469 507.523438 532.9375 507.566406 533.890625 C 507.589844 534.46875 507.316406 534.585938 506.816406 534.5625 C 502.839844 534.382812 498.859375 534.210938 494.882812 534.039062 C 494.5 534.019531 494.121094 534.023438 493.742188 534.011719 C 490.964844 533.933594 488.183594 533.851562 485.410156 533.773438 C 485.371094 533.695312 485.335938 533.621094 485.296875 533.546875 Z M 405.304688 503.984375 C 404.765625 504.460938 404.023438 504.859375 403.878906 505.582031 C 403.667969 506.660156 403.675781 507.78125 403.570312 508.882812 C 403.53125 509.214844 403.71875 509.257812 403.960938 509.257812 C 404.308594 509.257812 404.65625 509.261719 405.003906 509.234375 C 407.558594 509.0625 410.109375 508.855469 412.660156 508.703125 C 415.34375 508.542969 418.035156 508.515625 420.707031 508.257812 C 422.125 508.125 423.558594 508.277344 424.957031 507.945312 C 425.214844 507.886719 425.660156 507.980469 425.386719 507.503906 C 424.382812 505.726562 423.867188 503.671875 422.335938 502.179688 C 420.949219 500.832031 419.621094 499.429688 418.265625 498.050781 C 417.796875 497.507812 417.238281 497.734375 416.691406 497.851562 C 413.4375 498.535156 409.90625 498.566406 407.664062 501.660156 C 406.933594 502.488281 406.140625 503.257812 405.304688 503.984375 Z M 424.582031 496.128906 C 427.074219 496.121094 429.570312 496.113281 432.066406 496.117188 C 432.636719 496.117188 432.855469 496.03125 432.453125 495.453125 C 432.054688 494.886719 431.742188 494.265625 431.394531 493.671875 C 430.972656 493.261719 430.726562 492.695312 430.085938 492.488281 C 429.070312 492.15625 428.070312 491.75 427.078125 491.34375 C 426.664062 491.167969 426.417969 491.214844 426.125 491.597656 C 425.292969 492.664062 424.398438 493.6875 423.554688 494.753906 C 423.222656 495.164062 422.6875 495.460938 422.613281 496.148438 C 423.132812 496.148438 423.570312 496.148438 424.015625 496.148438 C 424.203125 496.144531 424.390625 496.128906 424.582031 496.128906 Z M 424.582031 496.128906 " fill-opacity="1" fill-rule="nonzero"/><g clip-path="url(#1c64f1baea)"><g clip-path="url(#2d33cadc93)"><path fill="#c1ff72" d="M 477.023438 403.253906 L 855.890625 403.253906 L 855.890625 873.964844 L 477.023438 873.964844 Z M 477.023438 403.253906 " fill-opacity="1" fill-rule="nonzero"/></g></g><g fill="#004aad" fill-opacity="1"><g transform="translate(129.983347, 712.767992)"><g><path d="M 63.0625 -12.859375 C 61.734375 -14.9375 59.65625 -15.84375 57.078125 -15.515625 C 55.421875 -15.34375 53.6875 -14.765625 52.1875 -14.265625 C 44.96875 -11.953125 36.34375 -10.125 27.296875 -14.515625 C 19.75 -18.25 15.765625 -25.640625 17.25 -33.359375 C 17.75 -35.84375 18.5 -39.078125 20.15625 -41.65625 C 27.796875 -53.84375 36.34375 -57.25 47.875 -52.609375 C 49.453125 -52.015625 50.859375 -51.609375 52.109375 -51.4375 C 53.765625 -51.28125 55.171875 -51.765625 56 -52.9375 C 56.75 -54.015625 56.828125 -55.421875 56.171875 -56.828125 C 55.421875 -58.40625 54.171875 -59.984375 52.515625 -61.390625 C 48.125 -65.046875 42.5625 -66.875 36.921875 -66.875 C 32.03125 -66.875 27.046875 -65.46875 22.65625 -62.640625 C 13.03125 -56.5 6.96875 -48.453125 4.390625 -38.65625 C 1.078125 -25.71875 3.8125 -15.09375 12.4375 -7.046875 C 18.921875 -1 27.546875 2.484375 38 3.3125 C 45.140625 2.90625 51.53125 1.40625 57.578125 -1.328125 C 59.40625 -2.15625 61.3125 -3.90625 63.0625 -6.140625 C 64.546875 -8.125 64.546875 -10.625 63.0625 -12.859375 Z M 63.0625 -12.859375 "/></g></g></g><g fill="#004aad" fill-opacity="1"><g transform="translate(195.104312, 712.767992)"><g><path d="M 42.640625 -16.59375 C 41.40625 -22.3125 40.484375 -28.203125 39.25 -34.015625 C 38.828125 -35.84375 38.328125 -38.25 37 -39.328125 C 33.015625 -42.390625 28.625 -45.046875 23.0625 -44.140625 C 13.359375 -42.390625 3.90625 -31.78125 3.0625 -21.40625 C 2.328125 -11.859375 9.953125 -5.234375 19.421875 -7.46875 C 21.90625 -8.125 24.234375 -9.546875 26.546875 -10.703125 C 27.375 -11.125 28.046875 -11.78125 28.875 -12.359375 C 29.28125 -11.78125 29.625 -11.453125 29.875 -11.03125 C 32.609375 -6.890625 36.171875 -5.3125 39.5 -6.71875 C 42.734375 -8.125 43.71875 -11.609375 42.640625 -16.59375 Z M 18.578125 -19.5 C 17.671875 -19.171875 16.34375 -19.078125 15.515625 -19.5 C 15.015625 -19.75 15.015625 -21.484375 15.34375 -22.3125 C 17.171875 -27.46875 20.078125 -31.609375 25.640625 -33.9375 C 26.640625 -27.546875 23.640625 -21.484375 18.578125 -19.5 Z M 18.578125 -19.5 "/></g></g></g><g fill="#004aad" fill-opacity="1"><g transform="translate(239.15421, 712.767992)"><g><path d="M 31.609375 -23.984375 C 28.453125 -26.875 24.234375 -28.703125 20.40625 -31.03125 C 19.328125 -31.6875 18.171875 -32.109375 16.765625 -32.859375 C 19.75 -36.34375 22.65625 -36.84375 26.640625 -34.6875 C 28.453125 -33.765625 30.453125 -32.9375 31.859375 -34.59375 C 32.9375 -35.84375 33.609375 -38 33.4375 -39.578125 C 32.9375 -43.71875 30.203125 -46.296875 26.296875 -47.546875 C 18.421875 -50.03125 8.46875 -45.875 4.640625 -38.578125 C 2.078125 -33.609375 2.484375 -28.296875 6.71875 -24.640625 C 9.453125 -22.3125 12.9375 -20.984375 16.171875 -19.421875 C 18.09375 -18.421875 20.15625 -17.921875 22.15625 -17.171875 C 22.0625 -16.84375 21.984375 -16.515625 21.90625 -16.09375 C 19.25 -16.34375 16.671875 -16.59375 14.109375 -16.921875 C 10.28125 -17.34375 7.296875 -16.09375 6.140625 -13.4375 C 4.890625 -10.625 5.640625 -6.890625 8.71875 -4.984375 C 11.359375 -3.3125 14.515625 -1.984375 17.5 -1.75 C 20.828125 -1.578125 24.3125 -2.40625 27.46875 -3.5625 C 37.171875 -7.21875 39.25 -16.921875 31.609375 -23.984375 Z M 31.609375 -23.984375 "/></g></g></g><g fill="#004aad" fill-opacity="1"><g transform="translate(276.401637, 712.767992)"><g><path d="M 42.640625 -16.59375 C 41.40625 -22.3125 40.484375 -28.203125 39.25 -34.015625 C 38.828125 -35.84375 38.328125 -38.25 37 -39.328125 C 33.015625 -42.390625 28.625 -45.046875 23.0625 -44.140625 C 13.359375 -42.390625 3.90625 -31.78125 3.0625 -21.40625 C 2.328125 -11.859375 9.953125 -5.234375 19.421875 -7.46875 C 21.90625 -8.125 24.234375 -9.546875 26.546875 -10.703125 C 27.375 -11.125 28.046875 -11.78125 28.875 -12.359375 C 29.28125 -11.78125 29.625 -11.453125 29.875 -11.03125 C 32.609375 -6.890625 36.171875 -5.3125 39.5 -6.71875 C 42.734375 -8.125 43.71875 -11.609375 42.640625 -16.59375 Z M 18.578125 -19.5 C 17.671875 -19.171875 16.34375 -19.078125 15.515625 -19.5 C 15.015625 -19.75 15.015625 -21.484375 15.34375 -22.3125 C 17.171875 -27.46875 20.078125 -31.609375 25.640625 -33.9375 C 26.640625 -27.546875 23.640625 -21.484375 18.578125 -19.5 Z M 18.578125 -19.5 "/></g></g></g><g fill="#004aad" fill-opacity="1"><g transform="translate(320.451535, 712.767992)"><g/></g></g><g fill="#004aad" fill-opacity="1"><g transform="translate(342.103057, 712.767992)"><g><path d="M 41.984375 -60.484375 C 41.90625 -62.0625 41.734375 -63.96875 40.828125 -65.046875 C 39.734375 -66.296875 37.828125 -67.53125 36.25 -67.453125 C 34.9375 -67.375 33.515625 -65.625 32.609375 -64.296875 C 31.9375 -63.390625 32.109375 -61.984375 32.03125 -60.734375 C 31.53125 -54.171875 31.109375 -47.625 30.609375 -40.828125 C 29.78125 -41.0625 29.125 -41.234375 28.546875 -41.40625 C 16.671875 -45.546875 8.375 -41.5625 4.484375 -29.625 C 3.984375 -28.046875 3.5625 -26.46875 3.3125 -24.890625 C 1.65625 -14.515625 7.140625 -5.71875 16.515625 -3.65625 C 20.90625 -2.65625 25.140625 -3.40625 29.203125 -5.140625 C 30.203125 -5.5625 31.4375 -5.890625 32.359375 -5.5625 C 38.078125 -3.5625 41.984375 -5.96875 42.0625 -12.109375 C 42.140625 -28.203125 42.0625 -44.390625 41.984375 -60.484375 Z M 28.703125 -19.421875 C 26.046875 -18.578125 23.3125 -17.84375 20.578125 -17.09375 C 18.34375 -17.171875 16.765625 -18.34375 16.921875 -20.328125 C 17.25 -22.984375 18.25 -25.640625 19.25 -28.203125 C 19.421875 -28.796875 20.65625 -29.203125 21.40625 -29.203125 C 25.140625 -29.375 29.78125 -24.71875 29.53125 -20.984375 C 29.53125 -20.40625 29.125 -19.578125 28.703125 -19.421875 Z M 28.703125 -19.421875 "/></g></g></g><g fill="#004aad" fill-opacity="1"><g transform="translate(385.157468, 712.767992)"><g><path d="M 29.203125 -38.90625 C 27.296875 -39.15625 25.390625 -39.5 23.484375 -39.984375 C 20.078125 -40.984375 16.84375 -40.578125 13.859375 -38.75 C 6.96875 -34.59375 2.578125 -28.625 1.40625 -20.578125 C 0.421875 -13.6875 3.484375 -8.296875 10.046875 -6.0625 C 13.359375 -4.890625 16.84375 -4.484375 20.25 -3.734375 C 25.390625 -3.65625 29.625 -5.3125 33.1875 -8.796875 C 37.5 -12.9375 39.734375 -18.171875 40.578125 -24.0625 C 41.5625 -31.53125 36.75 -37.828125 29.203125 -38.90625 Z M 26.796875 -22.984375 C 25.21875 -18.421875 23.640625 -16.921875 20.40625 -17.09375 C 13.9375 -17.421875 12.9375 -19.25 16.171875 -24.96875 C 16.421875 -25.390625 16.671875 -25.796875 16.921875 -26.21875 C 20.078125 -30.859375 20.734375 -30.859375 25.3125 -27.71875 C 27.125 -26.390625 27.546875 -25.0625 26.796875 -22.984375 Z M 26.796875 -22.984375 "/></g></g></g><g fill="#004aad" fill-opacity="1"><g transform="translate(425.723178, 712.767992)"><g/></g></g><g fill="#004aad" fill-opacity="1"><g transform="translate(447.374712, 712.767992)"><g><path d="M 63.0625 -12.859375 C 61.734375 -14.9375 59.65625 -15.84375 57.078125 -15.515625 C 55.421875 -15.34375 53.6875 -14.765625 52.1875 -14.265625 C 44.96875 -11.953125 36.34375 -10.125 27.296875 -14.515625 C 19.75 -18.25 15.765625 -25.640625 17.25 -33.359375 C 17.75 -35.84375 18.5 -39.078125 20.15625 -41.65625 C 27.796875 -53.84375 36.34375 -57.25 47.875 -52.609375 C 49.453125 -52.015625 50.859375 -51.609375 52.109375 -51.4375 C 53.765625 -51.28125 55.171875 -51.765625 56 -52.9375 C 56.75 -54.015625 56.828125 -55.421875 56.171875 -56.828125 C 55.421875 -58.40625 54.171875 -59.984375 52.515625 -61.390625 C 48.125 -65.046875 42.5625 -66.875 36.921875 -66.875 C 32.03125 -66.875 27.046875 -65.46875 22.65625 -62.640625 C 13.03125 -56.5 6.96875 -48.453125 4.390625 -38.65625 C 1.078125 -25.71875 3.8125 -15.09375 12.4375 -7.046875 C 18.921875 -1 27.546875 2.484375 38 3.3125 C 45.140625 2.90625 51.53125 1.40625 57.578125 -1.328125 C 59.40625 -2.15625 61.3125 -3.90625 63.0625 -6.140625 C 64.546875 -8.125 64.546875 -10.625 63.0625 -12.859375 Z M 63.0625 -12.859375 "/></g></g></g><g fill="#004aad" fill-opacity="1"><g transform="translate(512.495687, 712.767992)"><g><path d="M 42.640625 -16.59375 C 41.40625 -22.3125 40.484375 -28.203125 39.25 -34.015625 C 38.828125 -35.84375 38.328125 -38.25 37 -39.328125 C 33.015625 -42.390625 28.625 -45.046875 23.0625 -44.140625 C 13.359375 -42.390625 3.90625 -31.78125 3.0625 -21.40625 C 2.328125 -11.859375 9.953125 -5.234375 19.421875 -7.46875 C 21.90625 -8.125 24.234375 -9.546875 26.546875 -10.703125 C 27.375 -11.125 28.046875 -11.78125 28.875 -12.359375 C 29.28125 -11.78125 29.625 -11.453125 29.875 -11.03125 C 32.609375 -6.890625 36.171875 -5.3125 39.5 -6.71875 C 42.734375 -8.125 43.71875 -11.609375 42.640625 -16.59375 Z M 18.578125 -19.5 C 17.671875 -19.171875 16.34375 -19.078125 15.515625 -19.5 C 15.015625 -19.75 15.015625 -21.484375 15.34375 -22.3125 C 17.171875 -27.46875 20.078125 -31.609375 25.640625 -33.9375 C 26.640625 -27.546875 23.640625 -21.484375 18.578125 -19.5 Z M 18.578125 -19.5 "/></g></g></g><g fill="#004aad" fill-opacity="1"><g transform="translate(556.545596, 712.767992)"><g><path d="M 64.546875 -18.421875 C 63.890625 -24.3125 63.3125 -30.28125 59.828125 -35.421875 C 55.015625 -42.640625 47.046875 -43.5625 40.828125 -37.5 C 39.984375 -36.75 39.40625 -35.671875 38.65625 -34.6875 C 30.953125 -43.5625 28.796875 -43.5625 17.09375 -35.265625 C 16.765625 -36.671875 16.765625 -38.25 16.09375 -39.328125 C 15.1875 -40.734375 13.765625 -42.390625 12.359375 -42.5625 C 10.953125 -42.8125 9.046875 -41.65625 7.796875 -40.578125 C 6.890625 -39.828125 6.3125 -38.328125 6.140625 -37.09375 C 5.0625 -29.28125 3.984375 -21.40625 3.0625 -13.609375 C 2.90625 -12.359375 3.3125 -10.953125 3.734375 -9.703125 C 4.8125 -6.546875 7.390625 -4.5625 10.375 -4.390625 C 13.53125 -4.234375 16.171875 -5.96875 17.59375 -9.296875 C 18.09375 -10.53125 18.34375 -11.859375 18.828125 -13.109375 C 20.328125 -17.34375 21.828125 -21.65625 23.640625 -25.71875 C 24.46875 -27.625 26.21875 -29.125 27.546875 -30.859375 C 27.953125 -30.703125 28.375 -30.53125 28.796875 -30.453125 C 28.953125 -27.21875 29.28125 -23.984375 29.28125 -20.734375 C 29.28125 -17.59375 28.875 -14.515625 28.953125 -11.453125 C 29.03125 -7.140625 31.859375 -4.140625 35.59375 -4.0625 C 39.25 -3.90625 42.140625 -6.546875 42.640625 -10.703125 C 42.890625 -12.28125 42.8125 -13.9375 42.984375 -15.515625 C 43.234375 -19.65625 45.21875 -23.0625 47.625 -26.296875 C 47.953125 -26.21875 48.203125 -26.140625 48.453125 -26.140625 C 48.625 -24.3125 48.625 -22.40625 48.953125 -20.578125 C 49.78125 -16.671875 50.359375 -12.609375 51.859375 -8.953125 C 53.015625 -5.96875 55.921875 -4.484375 59.328125 -5.0625 C 62.140625 -5.5625 64.296875 -8.046875 64.625 -11.609375 C 64.875 -13.859375 64.796875 -16.171875 64.546875 -18.421875 Z M 64.546875 -18.421875 "/></g></g></g><g fill="#004aad" fill-opacity="1"><g transform="translate(622.330215, 712.767992)"><g><path d="M 15.34375 -35.421875 C 15.265625 -37.75 14.015625 -39.578125 11.53125 -39.90625 C 8.953125 -40.234375 7.046875 -38.75 6.640625 -36.421875 C 5.234375 -28.375 3.8125 -20.15625 3.0625 -12.03125 C 2.65625 -7.71875 5.3125 -4.984375 8.296875 -4.734375 C 11.359375 -4.484375 13.859375 -7.046875 14.6875 -11.453125 C 14.9375 -13.109375 15.09375 -14.84375 15.1875 -16.515625 C 15.265625 -19 15.515625 -31.609375 15.34375 -35.421875 Z M 9.203125 -47.046875 C 11.953125 -46.953125 14.4375 -49.453125 14.515625 -52.515625 C 14.515625 -55.34375 12.359375 -57.578125 9.546875 -57.5 C 6.71875 -57.5 4.390625 -55.25 4.390625 -52.359375 C 4.390625 -49.453125 6.46875 -47.125 9.203125 -47.046875 Z M 9.203125 -47.046875 "/></g></g></g><g fill="#004aad" fill-opacity="1"><g transform="translate(638.755462, 712.767992)"><g><path d="M 38.25 -35.84375 C 33.609375 -42.0625 26.390625 -43.0625 20.078125 -38.578125 C 18.25 -37.25 16.59375 -35.671875 14.6875 -34.015625 C 14.359375 -34.6875 14.1875 -35.09375 14.015625 -35.59375 C 13.28125 -38.171875 12.109375 -40.578125 8.953125 -40.484375 C 5.640625 -40.328125 4.640625 -37.578125 4.390625 -34.9375 C 3.8125 -27.296875 3.234375 -19.65625 3.0625 -12.03125 C 2.90625 -7.796875 5.71875 -4.890625 9.375 -4.484375 C 13.03125 -4.0625 16.171875 -6.390625 17.171875 -10.625 C 18.5 -16.515625 21.734375 -21.40625 25.390625 -26.046875 C 25.96875 -26.796875 26.796875 -27.296875 27.953125 -28.375 C 28.375 -26.21875 28.625 -24.8125 28.796875 -23.3125 C 29.375 -19.421875 29.625 -15.34375 30.609375 -11.453125 C 31.4375 -8.125 34.265625 -6.46875 37.171875 -6.546875 C 39.828125 -6.71875 42.390625 -8.71875 42.890625 -12.03125 C 44.21875 -20.5 43.46875 -28.703125 38.25 -35.84375 Z M 38.25 -35.84375 "/></g></g></g><g fill="#004aad" fill-opacity="1"><g transform="translate(683.220151, 712.767992)"><g><path d="M 42.890625 -21.40625 C 42.140625 -25.46875 41.234375 -29.703125 39.5 -33.515625 C 35.59375 -42.484375 28.796875 -44.46875 20.25 -39.828125 C 20.078125 -39.734375 19.90625 -39.734375 19.25 -39.578125 C 18.921875 -41.234375 18.578125 -42.640625 18.25 -44.140625 C 17.015625 -50.28125 15.84375 -56.5 14.4375 -62.640625 C 13.6875 -65.875 11.53125 -67.625 9.046875 -67.625 C 6.46875 -67.53125 4.3125 -65.546875 3.734375 -62.21875 C 3.3125 -60.234375 2.90625 -58.078125 3.0625 -56.09375 C 3.65625 -45.296875 4.234375 -34.4375 5.140625 -23.640625 C 5.46875 -19.328125 6.46875 -14.9375 7.546875 -10.703125 C 8.296875 -7.96875 10.453125 -6.3125 13.4375 -6.21875 C 16.59375 -6.140625 18.75 -7.875 19.578125 -10.703125 C 20.578125 -13.859375 21.234375 -17.09375 21.65625 -20.328125 C 22.3125 -24.71875 24.390625 -28.203125 28.046875 -31.4375 C 28.703125 -29.703125 29.453125 -28.453125 29.625 -27.21875 C 30.125 -24.234375 30.28125 -21.15625 30.78125 -18.25 C 31.109375 -16.015625 31.359375 -13.6875 32.1875 -11.609375 C 33.515625 -8.125 37.25 -7.71875 39.578125 -10.625 C 42.0625 -13.765625 43.5625 -17.421875 42.890625 -21.40625 Z M 42.890625 -21.40625 "/></g></g></g><g fill="#004aad" fill-opacity="1"><g transform="translate(727.27006, 712.767992)"><g><path d="M 29.203125 -38.90625 C 27.296875 -39.15625 25.390625 -39.5 23.484375 -39.984375 C 20.078125 -40.984375 16.84375 -40.578125 13.859375 -38.75 C 6.96875 -34.59375 2.578125 -28.625 1.40625 -20.578125 C 0.421875 -13.6875 3.484375 -8.296875 10.046875 -6.0625 C 13.359375 -4.890625 16.84375 -4.484375 20.25 -3.734375 C 25.390625 -3.65625 29.625 -5.3125 33.1875 -8.796875 C 37.5 -12.9375 39.734375 -18.171875 40.578125 -24.0625 C 41.5625 -31.53125 36.75 -37.828125 29.203125 -38.90625 Z M 26.796875 -22.984375 C 25.21875 -18.421875 23.640625 -16.921875 20.40625 -17.09375 C 13.9375 -17.421875 12.9375 -19.25 16.171875 -24.96875 C 16.421875 -25.390625 16.671875 -25.796875 16.921875 -26.21875 C 20.078125 -30.859375 20.734375 -30.859375 25.3125 -27.71875 C 27.125 -26.390625 27.546875 -25.0625 26.796875 -22.984375 Z M 26.796875 -22.984375 "/></g></g></g><g fill="#004aad" fill-opacity="1"><g transform="translate(361.278137, 770.694216)"><g><path d="M 13.671875 0.875 C 16.828125 0.875 19.375 -0.546875 21.21875 -3.171875 C 21.375 -3.421875 21.5 -3.671875 21.5 -3.953125 C 21.5 -4.671875 20.96875 -5.453125 19.953125 -5.453125 C 19.578125 -5.453125 19.046875 -5.296875 18.625 -4.796875 C 17.296875 -3.078125 15.625 -2.203125 13.5 -2.203125 C 8.828125 -2.203125 6.328125 -5.921875 6.328125 -11.125 C 6.328125 -17.171875 8.921875 -22.375 14.453125 -22.375 C 15.5 -22.375 16.296875 -22.09375 17 -21.546875 C 17.203125 -21.375 17.328125 -21.21875 17.546875 -21.046875 C 17.921875 -20.75 18.5 -20.546875 18.875 -20.546875 C 19.546875 -20.546875 20.328125 -21 20.328125 -21.921875 C 20.328125 -22.34375 20.171875 -22.796875 19.796875 -23.171875 C 18.296875 -24.796875 16.375 -25.546875 14.171875 -25.5 C 7.296875 -25.296875 3.5 -19.578125 3.203125 -12 C 3.328125 -4.203125 6.421875 0.875 13.671875 0.875 Z M 13.671875 0.875 "/></g></g></g><g fill="#004aad" fill-opacity="1"><g transform="translate(393.070882, 770.694216)"><g><path d="M 6.625 0.328125 C 7.453125 0.296875 8.046875 -0.328125 8.078125 -1.25 C 8.125 -1.796875 8.125 -2.328125 8.078125 -2.875 L 7.75 -9.078125 C 7.703125 -9.546875 7.953125 -9.703125 8.375 -9.703125 C 9.078125 -9.703125 9.796875 -9.796875 10.546875 -9.75 C 10.875 -9.75 11.078125 -9.671875 11.296875 -9.375 C 12.546875 -7.796875 13.875 -6.203125 15.25 -4.671875 C 16.296875 -3.546875 17.421875 -2.421875 18.546875 -1.328125 C 19.171875 -0.671875 20.046875 -0.703125 20.625 -1.25 C 21.125 -1.703125 21.171875 -2.578125 20.671875 -3.203125 C 20.125 -3.828125 19.625 -4.453125 19.046875 -5.046875 C 17.546875 -6.5 16.171875 -8 14.828125 -9.625 C 14.546875 -10 14.625 -10.328125 15.046875 -10.5 L 15.921875 -10.828125 C 18.328125 -11.75 19.953125 -13.453125 20.671875 -15.921875 C 21.171875 -17.578125 20.96875 -19.296875 20.078125 -20.75 C 18.328125 -23.625 15.5 -24.796875 12.296875 -25.125 C 9.953125 -25.34375 7.671875 -24.71875 5.421875 -24.046875 C 4.75 -23.875 4.421875 -23.421875 4.421875 -22.75 C 4.421875 -22.046875 4.421875 -21.34375 4.375 -20.671875 C 4.203125 -18.375 4.25 -16.078125 4.328125 -13.796875 C 4.453125 -10.703125 4.703125 -7.671875 4.828125 -4.578125 C 4.875 -3.375 4.75 -2.171875 5 -1 C 5.171875 -0.171875 5.875 0.421875 6.625 0.328125 Z M 8.453125 -12.625 C 8.328125 -12.625 8.203125 -12.671875 8.046875 -12.671875 C 7.671875 -12.703125 7.5 -13 7.5 -13.375 C 7.421875 -15.828125 7.171875 -18.328125 7.296875 -20.875 C 7.328125 -21.21875 7.453125 -21.421875 7.75 -21.59375 C 8.375 -21.84375 9.125 -21.875 9.828125 -21.96875 C 11.328125 -22.21875 12.921875 -22.296875 14.375 -21.671875 C 15.796875 -21.09375 17.203125 -20.46875 17.703125 -18.828125 C 18.203125 -17.296875 17.796875 -15.953125 16.671875 -14.828125 C 15.703125 -13.828125 14.5 -13.296875 13.125 -13 C 11.578125 -12.703125 10.046875 -12.5 8.453125 -12.625 Z M 8.453125 -12.625 "/></g></g></g><g fill="#004aad" fill-opacity="1"><g transform="translate(425.071947, 770.694216)"><g><path d="M 10.078125 1.953125 C 12.125 1.796875 13.953125 1 15.828125 0.25 C 16.703125 -0.125 17.078125 -1 16.796875 -1.75 C 16.546875 -2.5 15.703125 -2.75 14.796875 -2.453125 C 13.578125 -2.078125 12.421875 -1.625 11.203125 -1.296875 C 9.171875 -0.703125 8.671875 -1.296875 8.203125 -3.078125 C 7.578125 -5.671875 7.578125 -8.328125 7.421875 -10.796875 C 7.375 -11.203125 7.578125 -11.421875 8 -11.453125 C 8.953125 -11.578125 9.921875 -11.828125 10.921875 -11.953125 C 12.546875 -12.171875 14.171875 -12.125 15.75 -12.296875 C 16.671875 -12.375 17.203125 -12.921875 17.203125 -13.703125 C 17.171875 -14.5 16.671875 -15.046875 15.75 -15.078125 C 14.203125 -15.171875 12.671875 -14.953125 11.125 -14.828125 C 10.125 -14.75 9.171875 -14.578125 8.171875 -14.421875 C 7.75 -14.375 7.5 -14.578125 7.5 -15 L 7.5 -22.21875 C 7.5 -22.59375 7.703125 -22.796875 8.078125 -22.84375 C 9.171875 -22.96875 10.125 -23.09375 11.171875 -23.171875 C 12.75 -23.296875 14.328125 -23.296875 15.921875 -23.421875 C 16.671875 -23.5 17.171875 -24.171875 17.125 -24.84375 C 17.125 -25.421875 16.625 -26.046875 15.921875 -26.125 C 15.296875 -26.25 14.671875 -26.34375 14.046875 -26.296875 C 11.953125 -26.125 9.875 -25.875 7.796875 -25.71875 C 7.453125 -25.671875 7.125 -25.59375 6.828125 -25.671875 C 6.046875 -25.96875 5.421875 -25.796875 4.75 -25.34375 C 3.625 -24.625 3.421875 -23.96875 4.203125 -23.09375 C 4.421875 -22.84375 4.546875 -22.625 4.546875 -22.296875 C 4.578125 -20.25 4.453125 -18.25 4.421875 -17 C 4.328125 -13.953125 4.375 -10.953125 4.546875 -7.921875 C 4.703125 -5.546875 4.921875 -3.203125 5.75 -0.953125 C 6.328125 0.625 8.453125 2.046875 10.078125 1.953125 Z M 10.078125 1.953125 "/></g></g></g><g fill="#004aad" fill-opacity="1"><g transform="translate(452.781474, 770.694216)"><g><path d="M 13.671875 0.875 C 16.828125 0.875 19.375 -0.546875 21.21875 -3.171875 C 21.375 -3.421875 21.5 -3.671875 21.5 -3.953125 C 21.5 -4.671875 20.96875 -5.453125 19.953125 -5.453125 C 19.578125 -5.453125 19.046875 -5.296875 18.625 -4.796875 C 17.296875 -3.078125 15.625 -2.203125 13.5 -2.203125 C 8.828125 -2.203125 6.328125 -5.921875 6.328125 -11.125 C 6.328125 -17.171875 8.921875 -22.375 14.453125 -22.375 C 15.5 -22.375 16.296875 -22.09375 17 -21.546875 C 17.203125 -21.375 17.328125 -21.21875 17.546875 -21.046875 C 17.921875 -20.75 18.5 -20.546875 18.875 -20.546875 C 19.546875 -20.546875 20.328125 -21 20.328125 -21.921875 C 20.328125 -22.34375 20.171875 -22.796875 19.796875 -23.171875 C 18.296875 -24.796875 16.375 -25.546875 14.171875 -25.5 C 7.296875 -25.296875 3.5 -19.578125 3.203125 -12 C 3.328125 -4.203125 6.421875 0.875 13.671875 0.875 Z M 13.671875 0.875 "/></g></g></g><g fill="#004aad" fill-opacity="1"><g transform="translate(484.574216, 770.694216)"><g><path d="M 5.953125 0.875 C 6.671875 0.953125 7.375 0.453125 7.578125 -0.296875 C 7.671875 -0.578125 7.671875 -0.921875 7.671875 -1.25 L 7.546875 -6.921875 C 7.546875 -7.171875 7.546875 -7.421875 7.578125 -7.703125 C 7.625 -8.046875 7.875 -8.203125 8.203125 -8.25 C 11.5 -8.796875 14.703125 -9.453125 18 -9.875 C 18.328125 -9.921875 18.625 -9.828125 18.703125 -9.5 C 18.703125 -9.453125 18.703125 -9.421875 18.703125 -9.375 L 18.875 -3.125 C 18.875 -2.546875 18.875 -1.921875 19.203125 -1.375 C 19.578125 -0.75 20.328125 -0.328125 20.921875 -0.453125 C 21.625 -0.625 22.171875 -1.25 22.21875 -2.046875 C 22.25 -2.578125 22.296875 -3.125 22.21875 -3.671875 C 22.046875 -5.828125 22 -10.125 21.96875 -12.296875 C 21.875 -15.203125 21.84375 -18.171875 21.96875 -21.09375 C 22.046875 -22.09375 22 -23.09375 21.921875 -24.09375 C 21.875 -24.84375 21.375 -25.375 20.71875 -25.5 C 20.046875 -25.59375 19.453125 -25.21875 19.171875 -24.46875 C 19 -24 18.921875 -23.546875 18.921875 -23.09375 C 18.828125 -20.46875 18.796875 -17.828125 18.671875 -15.203125 C 18.625 -14.671875 18.703125 -14.125 18.703125 -13.578125 C 18.671875 -13.203125 18.453125 -13.046875 18.078125 -13 C 14.75 -12.625 11.546875 -11.828125 8.25 -11.375 C 7.828125 -11.328125 7.546875 -11.546875 7.546875 -11.953125 C 7.546875 -12.828125 7.625 -13.703125 7.578125 -14.546875 C 7.578125 -16.671875 7.671875 -18.796875 7.796875 -20.875 C 7.796875 -21.796875 7.875 -22.71875 7.828125 -23.625 C 7.796875 -24.375 7.25 -24.875 6.625 -24.96875 C 5.921875 -25.09375 5.328125 -24.71875 5.046875 -23.96875 C 4.953125 -23.75 4.875 -23.5 4.875 -23.25 C 4.625 -20.59375 4.421875 -17.921875 4.375 -15.25 C 4.296875 -12.546875 4.203125 -9.828125 4.328125 -7.125 C 4.375 -4.953125 4.296875 -2.796875 4.5 -0.671875 C 4.578125 0.203125 5.171875 0.828125 5.953125 0.875 Z M 5.953125 0.875 "/></g></g></g><g fill="#004aad" fill-opacity="1"><g transform="translate(518.575231, 770.694216)"><g><path d="M 10.078125 1.953125 C 12.125 1.796875 13.953125 1 15.828125 0.25 C 16.703125 -0.125 17.078125 -1 16.796875 -1.75 C 16.546875 -2.5 15.703125 -2.75 14.796875 -2.453125 C 13.578125 -2.078125 12.421875 -1.625 11.203125 -1.296875 C 9.171875 -0.703125 8.671875 -1.296875 8.203125 -3.078125 C 7.578125 -5.671875 7.578125 -8.328125 7.421875 -10.796875 C 7.375 -11.203125 7.578125 -11.421875 8 -11.453125 C 8.953125 -11.578125 9.921875 -11.828125 10.921875 -11.953125 C 12.546875 -12.171875 14.171875 -12.125 15.75 -12.296875 C 16.671875 -12.375 17.203125 -12.921875 17.203125 -13.703125 C 17.171875 -14.5 16.671875 -15.046875 15.75 -15.078125 C 14.203125 -15.171875 12.671875 -14.953125 11.125 -14.828125 C 10.125 -14.75 9.171875 -14.578125 8.171875 -14.421875 C 7.75 -14.375 7.5 -14.578125 7.5 -15 L 7.5 -22.21875 C 7.5 -22.59375 7.703125 -22.796875 8.078125 -22.84375 C 9.171875 -22.96875 10.125 -23.09375 11.171875 -23.171875 C 12.75 -23.296875 14.328125 -23.296875 15.921875 -23.421875 C 16.671875 -23.5 17.171875 -24.171875 17.125 -24.84375 C 17.125 -25.421875 16.625 -26.046875 15.921875 -26.125 C 15.296875 -26.25 14.671875 -26.34375 14.046875 -26.296875 C 11.953125 -26.125 9.875 -25.875 7.796875 -25.71875 C 7.453125 -25.671875 7.125 -25.59375 6.828125 -25.671875 C 6.046875 -25.96875 5.421875 -25.796875 4.75 -25.34375 C 3.625 -24.625 3.421875 -23.96875 4.203125 -23.09375 C 4.421875 -22.84375 4.546875 -22.625 4.546875 -22.296875 C 4.578125 -20.25 4.453125 -18.25 4.421875 -17 C 4.328125 -13.953125 4.375 -10.953125 4.546875 -7.921875 C 4.703125 -5.546875 4.921875 -3.203125 5.75 -0.953125 C 6.328125 0.625 8.453125 2.046875 10.078125 1.953125 Z M 10.078125 1.953125 "/></g></g></g></svg>